<?xml version="1.0" encoding="UTF-8" standalone="no"?>
<svg
   xmlns:dc="http://purl.org/dc/elements/1.1/"
   xmlns:cc="http://creativecommons.org/ns#"
   xmlns:rdf="http://www.w3.org/1999/02/22-rdf-syntax-ns#"
   xmlns:svg="http://www.w3.org/2000/svg"
   xmlns="http://www.w3.org/2000/svg"
   xmlns:sodipodi="http://sodipodi.sourceforge.net/DTD/sodipodi-0.dtd"
   xmlns:inkscape="http://www.inkscape.org/namespaces/inkscape"
   width="27.502mm"
   height="31.312mm"
   version="1.1"
   viewBox="0 0 27.502 31.312"
   id="svg30"
   sodipodi:docname="akesi.svg"
   inkscape:version="0.92.3 (2405546, 2018-03-11)">
  <metadata
     id="metadata36">
    <rdf:RDF>
      <cc:Work
         rdf:about="">
        <dc:format>image/svg+xml</dc:format>
        <dc:type
           rdf:resource="http://purl.org/dc/dcmitype/StillImage" />
        <dc:title></dc:title>
      </cc:Work>
    </rdf:RDF>
  </metadata>
  <defs
     id="defs34" />
  <sodipodi:namedview
     pagecolor="#ffffff"
     bordercolor="#666666"
     borderopacity="1"
     objecttolerance="10"
     gridtolerance="10"
     guidetolerance="10"
     inkscape:pageopacity="0"
     inkscape:pageshadow="2"
     inkscape:window-width="640"
     inkscape:window-height="480"
     id="namedview32"
     showgrid="false"
     inkscape:zoom="2"
     inkscape:cx="51.972285"
     inkscape:cy="59.172284"
     inkscape:current-layer="svg30" />
  <g
     transform="translate(1235.3 -50.718)"
     id="g28">
    <g
       aria-label=""
       style="font-size:25.39999962px;line-height:1.25;font-family:'sitelen Sonja';font-variant-ligatures:normal;font-variant-caps:normal;font-variant-numeric:normal;font-feature-settings:normal;text-align:center;letter-spacing:0px;word-spacing:0px;text-anchor:middle;fill:#000000;stroke-width:0.26458001"
       id="text26">
      <path
         d="m -1220.4401,57.255442 c 0.051,0.1524 0.2286,0.254 0.508,0.2794 0.2794,0.0254 0.5588,0 0.8382,-0.1016 0.2032,-0.127 0.3048,-0.3048 0.3048,-0.5588 -0.025,-0.2286 -0.127,-0.4572 -0.3302,-0.6858 -0.2032,-0.2286 -0.4318,-0.3048 -0.6858,-0.2794 -0.2286,0.0254 -0.4064,0.2032 -0.5588,0.508 -0.127,0.3302 -0.1524,0.6096 -0.076,0.8382 z m -5.3594,0.1016 c 0.051,0.1778 0.127,0.2794 0.2032,0.3048 0.076,0.0254 0.254,0.0508 0.4826,0.0254 0.2794,-0.0254 0.4318,-0.0508 0.508,-0.1524 0.076,-0.0508 0.1016,-0.254 0.127,-0.5842 0.025,-0.2794 0.025,-0.4826 -0.025,-0.5842 -0.051,-0.1524 -0.1524,-0.254 -0.3048,-0.3302 -0.254,-0.127 -0.4572,-0.1524 -0.5842,-0.0762 -0.1524,0.1016 -0.2794,0.3048 -0.3556,0.6096 -0.076,0.3048 -0.1016,0.5588 -0.051,0.7874 z m 4.445,4.7498 c -0.6096,0.127 -1.1684,0.2032 -1.7018,0.254 -0.508,0.0254 -0.7874,0.0254 -0.8636,-0.0508 -0.1778,-0.1778 -0.1778,-0.4572 0,-0.8636 0.1778,-0.4064 0.4064,-0.7874 0.762,-1.1176 0.3048,-0.3556 0.635,-0.5334 0.9144,-0.5334 0.2286,0 0.4572,0.1778 0.7112,0.5334 0.2794,0.3556 0.4572,0.762 0.5588,1.1938 0.076,0.2286 0.076,0.3556 0.051,0.4318 -0.051,0.0762 -0.2032,0.127 -0.4318,0.1524 z m 1.27,4.1402 c -0.1016,0.0508 -0.889,0.127 -2.3368,0.2286 l -2.2098,0.127 0.025,-1.1938 c 0,-0.8128 0.051,-1.2954 0.127,-1.4224 0.076,-0.0762 0.7112,-0.2032 1.9812,-0.381 1.2192,-0.1778 1.905,-0.2032 2.032,-0.127 0.2032,0.127 0.3556,0.5842 0.4572,1.397 0.127,0.8128 0.1016,1.27 -0.076,1.3716 z m -1.6256,4.495799 c -1.8542,0.5334 -2.8448,0.7112 -2.9718,0.5588 -0.076,-0.0762 -0.127,-0.6096 -0.127,-1.650999 v -1.5494 l 1.3716,-0.127 c 0.889,-0.0762 1.7272,-0.1524 2.5146,-0.2286 l 1.1938,-0.1016 -0.025,1.0922 c 0,0.7366 -0.051,1.1938 -0.127,1.3208 -0.051,0.0508 -0.254,0.152399 -0.6096,0.279399 -0.3556,0.127 -0.762,0.2794 -1.2192,0.4064 z m -0.9144,4.826 c -0.381,0.2286 -0.635,0.3556 -0.7112,0.3556 -0.1524,0 -0.3302,-0.1524 -0.5842,-0.4826 -0.2032,-0.3302 -0.381,-0.6604 -0.4826,-0.9906 -0.1778,-0.5842 -0.2286,-0.9652 -0.1778,-1.1938 0.025,-0.2286 0.2032,-0.3556 0.4826,-0.4318 0.3556,-0.0762 1.016,-0.254 1.9558,-0.4826 0.9652,-0.2286 1.524,-0.3556 1.651,-0.3556 0.076,0 0.076,0.1524 -0.025,0.4826 -0.076,0.3048 -0.2286,0.6604 -0.4064,1.0668 -0.2032,0.4318 -0.4064,0.762 -0.6096,1.016 -0.127,0.1778 -0.3048,0.381 -0.508,0.5588 -0.2286,0.2032 -0.4064,0.3556 -0.5842,0.4572 z m -2.0066,0.9652 c 0.3302,0.3302 0.5842,0.508 0.762,0.6096 0.1778,0.0508 0.4826,0.1016 0.8636,0.1016 0.4318,0 0.7366,-0.0508 0.9144,-0.1524 0.2032,-0.1016 0.5588,-0.4064 1.0414,-0.9398 0.4318,-0.4318 0.7366,-0.8382 0.9906,-1.1938 0.2032,-0.3556 0.4572,-0.8382 0.6858,-1.4732 0.4064,-1.0668 0.6858,-1.6764 0.8128,-1.8288 0.1016,-0.127 0.4064,-0.2032 0.889,-0.2286 0.508,-0.0254 0.889,0.0508 1.1176,0.1778 0.2032,0.127 0.381,0.1016 0.5588,-0.0508 0.1524,-0.1524 0.2032,-0.3556 0.1778,-0.6096 -0.051,-0.2286 -0.254,-0.4826 -0.635,-0.7112 -0.381,-0.253999 -0.762,-0.406399 -1.1684,-0.482599 l -0.7112,-0.1016 v -1.0414 c 0,-0.4826 0.025,-0.7874 0.076,-0.9144 0.051,-0.1016 0.2032,-0.1778 0.4826,-0.2286 0.381,-0.0762 0.9398,-0.127 1.7272,-0.1524 0.4318,0 0.7366,-0.0254 0.9144,-0.0762 0.1778,-0.0508 0.3048,-0.127 0.3556,-0.2286 0.1778,-0.5334 0.1016,-0.9144 -0.2286,-1.143 -0.3302,-0.2032 -1.016,-0.2794 -2.032,-0.2286 l -1.4732,0.0762 -0.2794,-1.0922 c -0.1778,-0.7366 -0.1778,-1.1684 -0.051,-1.2954 0.051,-0.0508 0.254,-0.1016 0.5588,-0.1778 0.3556,-0.0762 0.7112,-0.1016 1.1176,-0.127 0.5842,-0.0254 1.016,-0.0254 1.2954,0 0.2794,0.0254 0.4826,0.1016 0.6604,0.2286 0.2794,0.1778 0.508,0.2286 0.6858,0.127 0.1778,-0.1016 0.2286,-0.3302 0.2032,-0.6858 -0.051,-0.381 -0.2794,-0.6858 -0.7112,-0.9906 -0.4318,-0.254 -0.889,-0.4064 -1.4224,-0.4064 -0.5334,0.0254 -1.143,0.0762 -1.8034,0.2032 l -0.4826,0.0762 c -0.127,0.0254 -0.254,0.0254 -0.381,0 -0.127,-0.0254 -0.2286,-0.0508 -0.2794,-0.0762 -0.076,-0.0508 -0.1524,-0.127 -0.254,-0.254 -0.1016,-0.127 -0.1778,-0.254 -0.254,-0.381 -0.076,-0.127 -0.1778,-0.3302 -0.3048,-0.5842 -0.127,-0.2794 -0.3048,-0.5842 -0.508,-0.8636 -0.2286,-0.3048 -0.4064,-0.5334 -0.5588,-0.6604 -0.6604,-0.5334 -1.3462,-0.6096 -2.0574,-0.1524 -0.7112,0.4064 -1.2446,1.2192 -1.5748,2.3622 -0.2032,0.6604 -0.4318,1.0668 -0.7366,1.2446 -0.254,0.1524 -0.8128,0.2032 -1.6002,0.1778 -0.5842,-0.0254 -0.9906,0.0254 -1.1938,0.1016 -0.2032,0.0762 -0.3048,0.2794 -0.3048,0.5842 0,0.7366 0.635,1.0414 1.905,0.9144 l 1.0922,-0.1016 -0.025,0.7112 c 0,0.4318 -0.025,0.762 -0.025,0.9906 -0.051,0.2286 -0.1016,0.4064 -0.2032,0.5588 -0.1016,0.1524 -0.2032,0.254 -0.3556,0.3048 -0.1016,0.0508 -0.3302,0.1016 -0.6096,0.1524 -0.1778,0.0254 -0.3302,0.0254 -0.4572,0.0762 -0.127,0 -0.254,0.0508 -0.3556,0.0508 -0.1524,0.0508 -0.2286,0.0508 -0.3048,0.0508 -0.076,0.0254 -0.1524,0.0508 -0.2032,0.0508 -0.1016,0.0508 -0.1524,0.0508 -0.2032,0.0762 -0.025,0.0254 -0.076,0.0254 -0.1016,0.0762 -0.025,0 -0.051,0.0508 -0.076,0.0508 -0.025,0.0508 -0.025,0.0762 -0.051,0.1016 -0.025,0.0254 -0.025,0.0762 -0.025,0.1016 v 0.127 c 0,0.4318 0.1016,0.7366 0.3556,0.889 0.2032,0.1524 0.635,0.2032 1.2192,0.127 l 1.0414,-0.127 v 3.047999 l -1.1176,-0.127 c -0.3302,-0.0762 -0.5842,-0.1016 -0.762,-0.0762 -0.1778,0.0254 -0.2794,0.0508 -0.3302,0.1016 -0.051,0.0254 -0.1016,0.127 -0.127,0.3048 -0.1016,0.381 -0.051,0.6858 0.127,0.9144 0.2032,0.2286 0.5842,0.381 1.1176,0.4572 l 0.4572,0.0762 c 0.1016,0.0254 0.2032,0.0508 0.3302,0.127 0.127,0.0508 0.2032,0.1016 0.254,0.1524 0.051,0.0762 0.1016,0.1778 0.1778,0.3302 0.076,0.1524 0.127,0.3048 0.1524,0.4572 l 0.2032,0.6858 c 0.2032,0.7366 0.5334,1.3462 1.016,1.8288 z"
         style="font-size:25.39999962px;font-family:'sitelen Sonja';stroke-width:0.26458001"
         id="path41" />
    </g>
  </g>
</svg>
