<svg width="27.502mm" height="31.312mm" version="1.1" viewBox="0 0 27.502 31.312" xmlns="http://www.w3.org/2000/svg">
 <g transform="translate(1235.3 -50.718)">
  <g stroke-width=".26458" style="font-feature-settings:normal;font-variant-caps:normal;font-variant-ligatures:normal;font-variant-numeric:normal" aria-label="">
   <path d="m-1222 64.19c-1.8034 0.1524-2.794 0.1524-2.9464 0-0.076-0.0762-0.127-0.9652-0.127-2.6162 0-1.4478 0.076-2.3114 0.2032-2.5908 0.127-0.2794 0.5334-0.3048 1.1684-0.127 0.7112 0.2286 1.3462 0.762 1.9304 1.6002s0.9398 1.8288 1.1176 2.921l0.127 0.6858zm-0.9144 7.3914c-0.2794 0.3048-0.6096 0.635-0.9652 0.9652s-0.6604 0.5842-0.9144 0.762l-0.9144 0.635 0.1524-1.8542c0.076-1.2446 0.1778-2.5654 0.2794-3.9878 0.1016-1.397 0.1778-2.1336 0.2286-2.1844 0.051-0.0762 0.8382-0.1524 2.3876-0.2286l2.3114-0.127-0.1016 1.016c-0.076 0.7366-0.3556 1.5748-0.8128 2.54-0.508 0.9906-1.0414 1.8034-1.651 2.4638zm-4.1148 4.2418c0.381 0.381 0.7112 0.381 1.0414 0 0.1524-0.2032 0.5842-0.4572 1.27-0.7874 0.2794-0.127 0.6604-0.381 1.1176-0.6858 0.4318-0.3556 0.8382-0.6858 1.1938-1.016 0.508-0.4826 0.9144-0.9144 1.1938-1.3208s0.6096-0.9906 0.9906-1.7272c0.254-0.508 0.508-1.0668 0.7366-1.7018 0.254-0.635 0.4318-1.143 0.508-1.5494l0.3048-1.4224 1.1684 0.127c0.3302 0.0254 0.5588 0.0508 0.7112 0.0762s0.3048 0.0508 0.4318 0.1016 0.2286 0.1016 0.2286 0.127c0.051 0.0254 0.051 0.1016 0 0.2286 0 0.1016-0.051 0.2032-0.1016 0.3048-0.076 0.1016-0.1778 0.254-0.3048 0.4572-0.1778 0.254-0.3556 0.508-0.4572 0.8128-0.1524 0.254-0.2032 0.4826-0.2032 0.6096 0 0.3302 0.1016 0.5588 0.3048 0.7366 0.1778 0.1778 0.381 0.1778 0.6096 0.0508 0.2794-0.1778 0.9144-0.9906 1.9304-2.3876 0.9652-1.397 1.4732-2.2352 1.4732-2.4638 0-0.2794-0.127-0.5334-0.4064-0.8128-0.254-0.2794-0.889-0.7874-1.9304-1.5494-0.7874-0.5842-1.3462-0.9398-1.6764-1.016-0.381-0.1016-0.6096 0.0762-0.6604 0.5588-0.025 0.2032 0.025 0.4064 0.1524 0.5842 0.127 0.1778 0.381 0.4572 0.7874 0.8382 0.2794 0.254 0.4826 0.4826 0.6858 0.6858 0.1524 0.2032 0.2286 0.3302 0.2032 0.3556-0.076 0.0762-0.635 0.0508-1.6256-0.0254l-1.524-0.127-0.3302-0.8636c-0.4318-1.1684-0.8128-2.1082-1.143-2.794-0.3556-0.7112-0.7366-1.2954-1.1684-1.778-0.4318-0.4572-0.8636-0.7874-1.3462-0.9906s-1.0668-0.3302-1.778-0.4064l-1.1176-0.1016-0.4318 0.8636c-0.1778 0.4064-0.3048 0.7874-0.3048 1.1176-0.051 0.3302-0.025 1.143 0.025 2.4384l0.127 2.6924-0.7366 0.127c-0.4826 0.0762-1.016 0.127-1.6002 0.127s-0.9652 0.0508-1.1684 0.127-0.3048 0.254-0.3048 0.508c0 0.4064 0.127 0.6858 0.4064 0.8128 0.254 0.1524 0.7874 0.254 1.5748 0.2794l1.4986 0.0508-0.051 1.2192c-0.025 0.8128-0.1524 2.1082-0.3302 3.9116-0.1778 1.7272-0.2794 2.8702-0.254 3.4544 0 0.5842 0.1016 0.9652 0.2794 1.143z" stroke-width=".26458"/>
  </g>
 </g>
</svg>
