<svg width="27.502mm" height="31.312mm" version="1.1" viewBox="0 0 27.502 31.312" xmlns="http://www.w3.org/2000/svg">
 <g transform="translate(1235.3 -50.718)">
  <g stroke-width=".26458" style="font-feature-settings:normal;font-variant-caps:normal;font-variant-ligatures:normal;font-variant-numeric:normal" aria-label="">
   <path d="m-1213.3 68.381c-0.3048 0.1524-0.8128 0.2794-1.4986 0.3302-0.7112 0.1016-1.2446 0.0762-1.5748 0-0.7366-0.1778-1.524-0.5334-2.413-1.0668l-0.9398-0.5588 0.7366-0.635c0.4826-0.4318 1.0922-0.9144 1.8288-1.4732 0.508-0.381 0.889-0.6096 1.1176-0.6858 0.2286-0.1016 0.5588-0.1524 1.0414-0.1524 0.6604 0 1.2192 0.1524 1.7018 0.4572 0.4826 0.2794 0.8128 0.7112 1.0414 1.2446 0.127 0.3556 0.2032 0.6096 0.2032 0.7366-0.025 0.1524-0.1016 0.4064-0.2794 0.762-0.127 0.2032-0.2794 0.4064-0.4572 0.6096s-0.3556 0.3556-0.508 0.4318zm-14.224 0.9144c-0.762 0.127-1.2446 0.2032-1.4478 0.2286s-0.508-0.0254-0.889-0.1016c-0.4572-0.127-0.7874-0.381-0.9906-0.762-0.2032-0.4064-0.3302-1.0922-0.381-2.0574l-0.1016-1.7018 0.6604-0.6604c0.1778-0.1778 0.3302-0.3302 0.4572-0.4064 0.127-0.1016 0.2794-0.1778 0.4826-0.2032s0.4064-0.0254 0.5842 0c0.1778 0.0508 0.4318 0.1524 0.8128 0.3048 0.3556 0.1524 0.7366 0.3302 1.1176 0.508 0.381 0.2032 0.889 0.4826 1.5748 0.8382l3.2004 1.7272-0.5334 0.3556c-0.6604 0.4318-1.4224 0.8382-2.2606 1.1938-0.8382 0.381-1.6002 0.6096-2.286 0.7366zm-2.5146 1.778c0.7366 0.1524 1.6764 0.1016 2.8194-0.127 1.1176-0.254 2.159-0.635 3.1242-1.1684 0.889-0.4826 1.651-0.889 2.2352-1.2192l0.8636-0.508 1.2192 0.8636c0.8128 0.5842 1.5748 0.9906 2.3114 1.2192 0.7112 0.254 1.4986 0.381 2.3876 0.381 0.8382 0 1.4478-0.0762 1.8542-0.1778 0.381-0.1524 0.7874-0.4064 1.2192-0.8128 0.3556-0.3556 0.7112-0.8382 1.0414-1.4224 0.3302-0.6096 0.508-1.0668 0.508-1.397 0-0.635-0.254-1.397-0.7874-2.2606-0.5334-0.8382-1.0668-1.4224-1.6256-1.7018-0.3302-0.1524-0.8636-0.3048-1.5748-0.4572-0.4826-0.127-0.8382-0.1524-1.0668-0.127s-0.635 0.2032-1.2192 0.4826c-0.8382 0.381-1.7018 1.016-2.5908 1.8796-0.381 0.3556-0.7112 0.6604-1.016 0.9144-0.3302 0.254-0.508 0.381-0.5842 0.381-0.1524 0-0.7366-0.254-1.778-0.762s-2.2098-1.1176-3.5306-1.8542c-1.1684-0.635-2.0066-1.0414-2.54-1.1684s-1.0922-0.1016-1.6764 0.127c-0.4318 0.1778-0.8636 0.4572-1.2954 0.889s-0.6858 0.8128-0.7874 1.1938c-0.076 0.3048-0.1016 1.1176-0.051 2.4638 0.051 1.4478 0.2794 2.4892 0.6604 3.1242 0.381 0.6604 0.9906 1.0668 1.8796 1.2446z" stroke-width=".26458"/>
  </g>
 </g>
</svg>
