<svg width="27.502mm" height="31.312mm" version="1.1" viewBox="0 0 27.502 31.312" xmlns="http://www.w3.org/2000/svg">
 <g transform="translate(1235.3 -50.718)">
  <g stroke-width=".26458" style="font-feature-settings:normal;font-variant-caps:normal;font-variant-ligatures:normal;font-variant-numeric:normal" aria-label="">
   <path d="m-1229 69.498c0.508 0.2794 3.2766 0.2794 8.3058 0.0508 2.6416-0.127 4.3942-0.1016 5.2324 0.0254 0.5842 0.127 0.9652 0.1778 1.1176 0.1524 0.1778-0.0254 0.3556-0.127 0.5588-0.3302s0.3302-0.508 0.3556-0.9398c0.025-0.4064 0.051-1.6256 0.051-3.6322v-4.1656l-0.508-0.2794c-0.051-0.0254-0.1016-0.0508-0.1524-0.0762-0.3048-0.1524-0.508-0.1016-0.6096 0.127-0.127 0.3048-0.254 1.4224-0.3302 3.3274-0.1016 2.159-0.2286 3.302-0.381 3.4544-0.1016 0.1016-0.8128 0.2032-2.0828 0.3048-1.3208 0.1016-2.7178 0.1778-4.2164 0.2286-1.4986 0.0762-2.8956 0.1016-4.1656 0.1016s-1.9304-0.0508-1.9812-0.127c-0.051-0.1016 0-0.7874 0.1016-2.0574 0.1524-1.27 0.127-2.286 0-3.0734-0.1016-0.6096-0.2286-1.016-0.3556-1.1938s-0.3556-0.254-0.6858-0.2286c-0.1016 0.0254-0.1778 0.0508-0.2286 0.0762-0.025 0.0254-0.076 0.1524-0.1016 0.3048-0.025 0.2032-0.051 0.4064-0.1016 0.6604 0 0.2794-0.025 0.6858-0.051 1.2446-0.076 1.4986-0.1778 2.7178-0.3556 3.7084-0.1016 0.5842-0.1524 0.9906-0.1524 1.2446 0 0.2794 0.051 0.4826 0.1524 0.6604 0.127 0.1524 0.3048 0.3048 0.5842 0.4318zm6.4262 5.0292c0.2794 0.2794 0.5842 0.4318 0.9144 0.4572 0.3048 0.0254 0.5588-0.1016 0.762-0.3302 0.2286-0.2286 0.3302-0.5588 0.3302-0.9652-0.025-0.7366-0.4064-1.2192-1.143-1.397-0.2794-0.0762-0.4826-0.0508-0.635 0.0254s-0.3048 0.2794-0.4572 0.5588c-0.3302 0.6096-0.254 1.1684 0.2286 1.651z" stroke-width=".26458"/>
  </g>
 </g>
</svg>
