<svg width="27.502mm" height="31.312mm" version="1.1" viewBox="0 0 27.502 31.312" xmlns="http://www.w3.org/2000/svg">
 <g transform="translate(1235.3 -50.718)">
  <g stroke-width=".26458" style="font-feature-settings:normal;font-variant-caps:normal;font-variant-ligatures:normal;font-variant-numeric:normal" aria-label="">
   <path d="m-1224 63.275c0.6858 0.6604 1.2192 1.1176 1.5748 1.3716 0.3556 0.2794 0.635 0.4064 0.8128 0.4064s0.4572-0.1524 0.8382-0.4572c0.381-0.2794 0.9652-0.8128 1.7526-1.5748 0.5842-0.5334 1.27-1.143 2.0828-1.8034 0.7874-0.6604 1.4732-1.1684 2.0066-1.524s0.9906-0.6858 1.3716-0.9906c0.381-0.3302 0.5842-0.5334 0.6096-0.6096 0.025-0.2032-0.076-0.4318-0.3302-0.7112-0.254-0.254-0.4826-0.381-0.7112-0.381-0.1778 0-0.9652 0.5334-2.3876 1.6002-1.4478 1.0414-2.667 2.032-3.7084 2.921-0.3556 0.3048-0.6858 0.5588-0.9652 0.7874-0.3048 0.2032-0.4826 0.3048-0.5334 0.3048-0.076 0-0.3048-0.1524-0.6858-0.4572-0.381-0.3302-0.8382-0.7112-1.3208-1.143-1.6002-1.4224-2.8702-2.4384-3.81-3.0734s-1.7018-0.9398-2.286-0.9398c-0.3302 0-0.5588 0.0762-0.7366 0.1778-0.1778 0.1524-0.2794 0.3556-0.3302 0.6604-0.025 0.1524 0.051 0.3048 0.2286 0.4064 0.1524 0.1524 0.4572 0.3302 0.9398 0.5842 0.7366 0.381 1.524 0.9398 2.3876 1.6002 0.8382 0.7112 1.905 1.651 3.2004 2.8448zm9.0932 12.217c0.8382 0.762 1.5748 0.8128 2.2098 0.1524l0.4318-0.4572-0.4572-0.4572c-0.3048-0.3048-1.8542-1.5494-4.6736-3.7592-1.778-1.397-2.9464-2.3114-3.5306-2.6924s-0.9652-0.5588-1.1684-0.5334c-0.127 0.0254-0.381 0.2032-0.7366 0.4826-0.381 0.2794-0.762 0.635-1.143 0.9906-0.381 0.4064-0.9398 0.889-1.6764 1.4732-0.7366 0.5842-1.4478 1.1176-2.1082 1.5748-1.6002 1.0922-2.3876 1.778-2.3876 2.0066 0 0.2794 0.1016 0.4318 0.3048 0.4826 0.2032 0.0254 0.4826-0.0508 0.8382-0.2286 0.4318-0.2286 1.3208-0.7874 2.667-1.7018 1.3462-0.8636 2.3114-1.5748 2.9464-2.0574 0.2794-0.2286 0.5588-0.4318 0.8382-0.5842 0.254-0.1778 0.4064-0.254 0.4826-0.254 0.127 0 1.143 0.762 3.0988 2.2352 1.9304 1.524 3.2766 2.6162 4.064 3.3274z" stroke-width=".26458"/>
  </g>
 </g>
</svg>
