<svg width="27.502mm" height="31.312mm" version="1.1" viewBox="0 0 27.502 31.312" xmlns="http://www.w3.org/2000/svg">
 <g transform="translate(1235.3 -50.718)">
  <g stroke-width=".26458" style="font-feature-settings:normal;font-variant-caps:normal;font-variant-ligatures:normal;font-variant-numeric:normal" aria-label="">
   <path d="m-1221.7 77.067c0.1778 0.2032 0.3556 0.3302 0.4826 0.3302 0.1524 0.0508 0.3302-0.0254 0.5334-0.1524 0.127-0.0762 0.1778-0.4064 0.2286-1.016 0-0.6096 0.025-1.9304 0-3.937-0.025-3.2004 0-4.8768 0.1016-5.0292 0.127-0.1524 0.7366-1.27 1.8288-3.3274s2.1082-3.7846 3.048-5.1816c0.9144-1.397 1.3716-2.159 1.3716-2.286 0-0.1778-0.1524-0.3556-0.508-0.5334-0.3048-0.1778-0.5588-0.254-0.7112-0.2032-0.2032 0.0762-0.762 0.8382-1.6764 2.2352-0.9398 1.397-1.8034 2.8702-2.6416 4.3688-0.9906 1.7526-1.5494 2.6924-1.7018 2.8702-0.127 0.127-0.2794 0.1016-0.4826-0.127-0.3302-0.3302-1.4224-1.8542-3.2512-4.572-0.635-0.9652-1.2446-1.8288-1.778-2.5654-0.5588-0.7366-0.889-1.143-1.016-1.2192-0.3048-0.2286-0.5588-0.3048-0.762-0.2794s-0.3048 0.1778-0.3048 0.4318c0 0.2032 0.3302 0.8382 0.9652 1.9304 0.6604 1.0668 2.0066 3.175 4.0386 6.35l1.5748 2.4638v3.0734c0.025 3.7846 0.2286 5.8928 0.6604 6.3754z" stroke-width=".26458"/>
  </g>
 </g>
</svg>
