<svg width="27.502mm" height="31.312mm" version="1.1" viewBox="0 0 27.502 31.312" xmlns="http://www.w3.org/2000/svg">
 <g transform="translate(1235.3 -50.718)">
  <g stroke-width=".26458" style="font-feature-settings:normal;font-variant-caps:normal;font-variant-ligatures:normal;font-variant-numeric:normal" aria-label="î€">
   <path d="m-1232.8 74.908c0.2794 0.2032 0.6858 0.2794 1.27 0.2032 0.5588-0.0762 1.3462-0.127 2.3368-0.2032s1.5748-0.1778 1.7272-0.3048c0.076-0.0508 0.1778-0.3048 0.3556-0.762 0.1778-0.4826 0.381-1.016 0.5588-1.6256 0.508-1.6256 1.1684-3.6068 1.9558-5.8928 0.7874-2.3368 1.3462-3.8354 1.6764-4.572 0.1524-0.3556 0.3048-0.6604 0.4572-0.9144 0.1778-0.254 0.2794-0.381 0.3556-0.381 0.1524 0 0.381 0.3302 0.6604 0.9652 0.3048 0.635 0.7112 1.7018 1.2446 3.175 0.5588 1.6256 1.3716 3.7846 2.413 6.4516l1.5748 4.0132h4.2672c0.3302 0 0.6604 0 0.9398-0.0508 0.3048 0 0.5334-0.0508 0.6604-0.1016 0.127-0.0254 0.254-0.1016 0.3302-0.1524 0.1016-0.1016 0.1524-0.1524 0.1778-0.254 0.025-0.0508 0.051-0.1778 0.051-0.3302 0-0.127-0.025-0.254-0.1016-0.4064-0.051-0.1524-0.127-0.2794-0.2286-0.381-0.1524-0.1778-0.381-0.2794-0.7112-0.3556-0.3048-0.0508-0.9144-0.1016-1.8542-0.1524-1.4478-0.0762-2.2352-0.1524-2.3368-0.2032-0.1016-0.0762-0.6096-1.2192-1.524-3.4798-0.9144-2.2606-1.7018-4.2418-2.3368-5.9944-0.2794-0.8128-0.5842-1.6002-0.9144-2.3114-0.3048-0.762-0.5334-1.2446-0.6858-1.4732-0.381-0.5842-0.8382-0.9906-1.397-1.27-0.5334-0.2794-0.9906-0.2794-1.3462-0.0508-0.3048 0.1778-1.0922 2.1336-2.3876 5.842-0.7874 2.2352-1.4986 4.2164-2.159 5.9944-0.6604 1.7272-1.0414 2.667-1.1684 2.7686-0.076 0.0762-0.3048 0.127-0.7112 0.2032-0.381 0.0762-0.8382 0.127-1.3208 0.1524-1.1938 0.0762-1.8542 0.1778-2.0066 0.3048-0.2032 0.1524-0.2794 0.4064-0.254 0.7874 0.051 0.3556 0.2032 0.6096 0.4318 0.762z" stroke-width=".26458"/>
  </g>
 </g>
</svg>
