<svg width="27.502mm" height="31.312mm" version="1.1" viewBox="0 0 27.502 31.312" xmlns="http://www.w3.org/2000/svg">
 <g transform="translate(1235.3 -50.718)">
  <g stroke-width=".26458" style="font-feature-settings:normal;font-variant-caps:normal;font-variant-ligatures:normal;font-variant-numeric:normal" aria-label="">
   <path d="m-1233 76.102c0.1524 0.1524 0.2794 0.2286 0.4064 0.2794 0.127 0 0.3048 0 0.5334-0.0508 0.5842-0.1778 1.4478-0.7112 2.5654-1.6002 1.143-0.889 2.413-2.0574 3.8354-3.4798 0.508-0.508 0.9144-0.9144 1.1938-1.2192 0.3048-0.3048 0.6096-0.635 0.9398-1.016 0.3048-0.3556 0.5588-0.635 0.7112-0.8382s0.2794-0.4318 0.4318-0.7366c0.127-0.254 0.2032-0.4826 0.254-0.635 0.025-0.1524 0.025-0.3556-0.025-0.5842-0.051-0.254-0.127-0.4572-0.2286-0.6096-0.076-0.1778-0.2286-0.381-0.4572-0.6604-0.2032-0.2794-0.4064-0.508-0.635-0.7112l-0.8382-0.8636c-1.3462-1.3208-2.921-2.7432-4.699-4.2926-1.0922-0.9398-1.8542-1.5494-2.2606-1.8288-0.4318-0.2794-0.7366-0.4318-0.9398-0.4064-0.2286 0.0254-0.3556 0.0762-0.4064 0.1524-0.051 0.0762-0.076 0.3048-0.076 0.635 0 0.2794 0.025 0.4826 0.1016 0.6096 0.051 0.127 0.2032 0.3048 0.4064 0.508 0.2286 0.1778 0.635 0.5334 1.27 1.016 1.1684 0.9144 2.54 2.0828 4.1148 3.5052 1.5494 1.397 2.413 2.2606 2.5654 2.5654 0.1016 0.2286 0.127 0.4064 0.1016 0.5334-0.025 0.1524-0.1778 0.4318-0.4318 0.8636-0.4572 0.6858-1.397 1.7272-2.8448 3.1496-1.4478 1.3716-2.667 2.4384-3.6576 3.1242-1.27 0.8636-2.0066 1.4224-2.1844 1.6764-0.2032 0.254-0.1016 0.5588 0.254 0.9144zm12.217 1.0668c0 0.2794 0.025 0.4572 0.076 0.5334s0.1778 0.1016 0.4318 0.1016c0.3048 0 0.6858-0.1778 1.1176-0.5334 0.4064-0.3556 1.27-1.2446 2.54-2.6416 1.9812-2.2098 3.6322-4.1402 4.953-5.7912 1.2954-1.651 1.9558-2.667 1.9558-3.048 0-0.3556-0.4318-0.9144-1.2954-1.7018-0.8382-0.762-1.8542-1.4732-2.9718-2.1336-1.3716-0.7874-2.667-1.6764-3.937-2.5908-1.27-0.9652-2.3876-1.8542-3.302-2.7432-0.4064-0.3556-0.762-0.6604-1.0922-0.9144-0.3302-0.2794-0.5334-0.4064-0.5842-0.4064-0.2032 0-0.381 0.1016-0.508 0.2794-0.1524 0.1778-0.2032 0.4064-0.2032 0.6858 0 0.4826 0.8382 1.4478 2.54 2.8448 1.6764 1.397 3.683 2.8194 5.969 4.2164 1.651 1.016 2.6162 1.6764 2.8702 2.0066 0.2794 0.3302 0.2032 0.762-0.1524 1.2954-0.3302 0.4572-1.0922 1.397-2.3114 2.8448-1.2192 1.4478-2.2606 2.6162-3.0988 3.556-1.2446 1.3462-2.0574 2.286-2.4384 2.794-0.381 0.5588-0.5588 0.9906-0.5588 1.3462z" stroke-width=".26458"/>
  </g>
 </g>
</svg>
