<svg width="27.502mm" height="31.312mm" version="1.1" viewBox="0 0 27.502 31.312" xmlns="http://www.w3.org/2000/svg">
 <g transform="translate(1235.3 -50.718)">
  <g stroke-width=".26458" style="font-feature-settings:normal;font-variant-caps:normal;font-variant-ligatures:normal;font-variant-numeric:normal" aria-label="î€">
   <path d="m-1221.8 74.654c0.3556 0.2032 0.6096 0.2286 0.762 0.0508 0.381-0.3556 0.5334-1.7526 0.4826-4.2164l-0.076-2.7178 3.3274-0.1016c2.2352-0.0762 3.4036-0.1778 3.5306-0.3048 0.1524-0.1778 0.2032-0.4318 0.127-0.7874-0.076-0.3556-0.254-0.635-0.508-0.8128-0.2032-0.1524-0.4572-0.2286-0.6858-0.254-0.254-0.0254-0.8128 0.0254-1.6764 0.1016-1.2192 0.127-2.1844 0.1778-2.8956 0.1524l-1.016-0.0508-0.1016-3.4036c-0.051-1.8542-0.127-2.9718-0.254-3.4036s-0.4064-0.6096-0.8636-0.5588l-0.4826 0.0508-0.102 7.2644-3.5052-0.0762-3.5306-0.0508-0.051 0.5334c0 0.1778 0 0.3556 0.051 0.508 0.025 0.2032 0.1016 0.3302 0.1524 0.4318 0.1524 0.1778 0.381 0.2794 0.762 0.3302 0.3556 0.0508 1.2446 0.1016 2.6416 0.1524 2.0828 0.1016 3.1496 0.1778 3.2258 0.2286 0.051 0.0508 0.1524 1.1938 0.2794 3.429 0.127 2.2352 0.254 3.4036 0.4064 3.5052z" stroke-width=".26458"/>
  </g>
 </g>
</svg>
