<svg width="27.502mm" height="31.312mm" version="1.1" viewBox="0 0 27.502 31.312" xmlns="http://www.w3.org/2000/svg">
 <g transform="translate(1235.3 -50.718)">
  <g stroke-width=".26458" style="font-feature-settings:normal;font-variant-caps:normal;font-variant-ligatures:normal;font-variant-numeric:normal" aria-label="î€">
   <path d="m-1218.7 63.351c-0.6096 0.127-1.0922 0.2032-1.4986 0.1778-0.4064 0-0.635-0.0762-0.6858-0.2286-0.1016-0.3302-0.051-0.7112 0.2032-1.0922 0.254-0.4064 0.6858-0.7874 1.2446-1.143 0.6604-0.4064 1.2192-0.6604 1.6256-0.7874 0.4318-0.127 0.7112-0.0762 0.8128 0.1016 0.127 0.1778 0.1778 0.5334 0.1778 1.0414 0 0.4826-0.1524 0.889-0.4826 1.2192s-0.7874 0.5842-1.397 0.7112zm-5.1308 7.7216c-0.3302 0.2032-0.8128 0.3302-1.4478 0.3302-0.6096 0.0508-1.1938-0.0254-1.7272-0.1524-0.508-0.1524-0.8128-0.3556-0.8636-0.5842 0-0.0762 0.025-0.2032 0.076-0.3302 0.076-0.1524 0.1524-0.2794 0.254-0.4064 0.1524-0.2286 0.3556-0.3556 0.5588-0.4064 0.2032-0.0254 0.6858-0.0508 1.4478-0.0508 0.4572 0 0.9144 0.0254 1.3462 0.0762s0.7112 0.1016 0.8382 0.1524c0.2286 0.1016 0.3556 0.1778 0.381 0.254 0.051 0.0762 0.025 0.1778-0.076 0.3556-0.051 0.127-0.1524 0.254-0.3048 0.381-0.1524 0.1524-0.3302 0.2794-0.4826 0.381zm7.7216 3.3782c0.5588 0.1778 1.143 0.1524 1.7018-0.127s0.8636-0.635 0.9144-1.1176c0.051-0.4826-0.025-0.762-0.1778-0.8636-0.1524-0.1016-0.508-0.0762-1.0414 0.0508-0.2032 0.0254-0.381 0.0762-0.508 0.0762-0.1016 0.0508-0.254 0.0254-0.4318 0s-0.3302-0.0762-0.4826-0.127c-0.127-0.0508-0.3302-0.1778-0.6096-0.3302-0.2794-0.2032-0.5588-0.381-0.8128-0.5842s-0.635-0.4826-1.143-0.8636l-1.8796-1.4224-0.051-1.397v-0.7366c-0.025-0.9144-0.025-1.4478 0.025-1.6002 0.051-0.1524 0.254-0.2286 0.5842-0.2286 0.127-0.0254 0.2286-0.0254 0.2794-0.0254 0.8128-0.0254 1.4986-0.1524 2.0066-0.3556 0.5334-0.2032 1.0414-0.5588 1.4986-1.0414l0.9144-0.889v-1.3208c0-0.5334-0.025-0.9144-0.076-1.1684s-0.1778-0.508-0.3556-0.762c-0.4572-0.6858-1.016-1.0414-1.651-1.0668-0.635 0-1.5494 0.3302-2.7432 1.016-0.8636 0.4826-1.4732 0.9144-1.8288 1.2954s-0.5588 0.8382-0.635 1.397c-0.025 0.3048-0.076 0.508-0.1524 0.6096-0.051 0.0762-0.1778 0.127-0.3556 0.127-0.3556 0-0.889-0.127-1.651-0.381-0.762-0.2794-1.4986-0.6096-2.2352-0.9906-0.4064-0.2032-0.762-0.381-1.0668-0.4826-0.3048-0.1524-0.4572-0.1778-0.508-0.1524-0.1016 0.1016-0.051 0.4064 0.127 0.9398 0.127 0.3556 0.2794 0.6096 0.4826 0.7874s0.6604 0.4318 1.3716 0.7874c0.4318 0.2286 0.889 0.4318 1.397 0.635s0.9144 0.3302 1.1938 0.381c0.2794 0.0762 0.4826 0.127 0.635 0.1778 0.1524 0.0254 0.2794 0.1016 0.4064 0.1524 0.1524 0.1016 0.2286 0.1524 0.2794 0.254 0.051 0.0508 0.1016 0.2032 0.1524 0.3556 0.051 0.2032 0.076 0.3556 0.076 0.5588v0.7366 1.4732l-0.9906-0.3048c-0.6096-0.1778-1.3716-0.2794-2.3368-0.3048s-1.651 0.0508-2.0574 0.2286c-0.3048 0.127-0.5842 0.3556-0.8636 0.6604-0.254 0.3048-0.4572 0.635-0.6096 1.016-0.1524 0.3556-0.2286 0.7112-0.2794 1.1176-0.025 0.3556 0.025 0.6858 0.1778 0.9652 0.2032 0.3302 0.6096 0.6096 1.2446 0.9144 0.635 0.254 1.3462 0.4572 2.1336 0.5842s1.4732 0.127 2.032 0c0.4318-0.0762 0.762-0.2032 1.016-0.3302 0.254-0.1524 0.5842-0.4064 0.9398-0.7874 0.635-0.6096 0.9906-0.9144 1.0414-0.9144 0.076 0 0.635 0.4318 1.7018 1.27 0.9652 0.7366 1.651 1.2446 2.0574 1.524 0.4318 0.2794 0.8128 0.4826 1.143 0.5842z" stroke-width=".26458"/>
  </g>
 </g>
</svg>
