<svg width="27.502mm" height="31.312mm" version="1.1" viewBox="0 0 27.502 31.312" xmlns="http://www.w3.org/2000/svg">
 <g transform="translate(1235.3 -50.718)">
  <g stroke-width=".26458" style="font-feature-settings:normal;font-variant-caps:normal;font-variant-ligatures:normal;font-variant-numeric:normal" aria-label="">
   <path d="m-1220.8 74.807c-0.9652 0.1778-1.7272 0.254-2.2352 0.254-1.397-0.0254-2.7432-0.4318-4.064-1.1684-1.2954-0.7366-2.2352-1.6764-2.794-2.7686-0.4572-0.9144-0.6096-1.9558-0.4572-3.1242 0.127-1.143 0.5334-2.2352 1.2446-3.2512 0.6858-1.016 1.651-2.032 2.921-3.0226 1.2446-0.9906 2.54-1.8034 3.8862-2.4384s2.4892-0.9398 3.4036-0.9398c0.889 0 1.6002 0.1524 2.1082 0.4064 0.5334 0.3048 1.0922 0.8382 1.7526 1.651 0.889 1.0922 1.4732 1.9558 1.7272 2.5654s0.3556 1.397 0.3556 2.3368c-0.051 2.4638-0.762 4.572-2.1844 6.2992-1.4224 1.7018-3.3274 2.7686-5.6642 3.2004zm-4.064 1.4732c1.397 0.3302 2.8956 0.3556 4.5212 0.1016 1.6002-0.3048 3.048-0.8382 4.3434-1.651 1.2446-0.7874 2.2352-1.7526 2.921-2.8702 0.7112-1.143 1.2192-2.5654 1.524-4.318 0.2032-1.1684 0.254-2.1844 0.1778-2.9972-0.076-0.8636-0.2794-1.6256-0.635-2.3622-0.254-0.4826-0.5842-1.016-0.9906-1.5494-0.381-0.5334-1.143-1.4986-2.2352-2.8448-0.4826-0.5842-1.1684-0.9906-2.0828-1.1684s-1.8288-0.127-2.7432 0.1778c-0.6096 0.2032-1.6002 0.635-2.9718 1.2954-1.4224 0.6604-2.667 1.4224-3.7846 2.2606-1.0922 0.8382-2.032 1.7526-2.7686 2.667-0.7366 0.9652-1.2954 1.905-1.651 2.8956-0.381 0.9906-0.5334 1.9812-0.508 2.9972 0.051 1.016 0.3048 1.9812 0.8128 2.921 0.4826 0.9398 1.3208 1.8542 2.5146 2.7178 1.1684 0.8636 2.3622 1.4478 3.556 1.7272z" stroke-width=".26458"/>
  </g>
 </g>
</svg>
