<svg width="27.502mm" height="31.312mm" version="1.1" viewBox="0 0 27.502 31.312" xmlns="http://www.w3.org/2000/svg">
 <g transform="translate(1235.3 -50.718)">
  <g stroke-width=".26458" style="font-feature-settings:normal;font-variant-caps:normal;font-variant-ligatures:normal;font-variant-numeric:normal" aria-label="">
   <path d="m-1215.6 70.032c0.508 0.508 0.889 0.4572 1.1176-0.1778 0.2286-0.6096 0.1778-1.4224-0.1778-2.413s-0.889-1.8542-1.5748-2.5654c-0.2286-0.2286-0.5588-0.4826-0.9652-0.762s-0.7874-0.508-1.143-0.6858c-0.8636-0.4318-1.778-0.6604-2.7432-0.7366s-1.8542 0.0508-2.6924 0.381c-0.8382 0.3048-1.651 0.8636-2.4892 1.6764-0.8128 0.8382-1.4224 1.7018-1.8542 2.6162-0.3556 0.7874-0.5588 1.3208-0.6096 1.651-0.025 0.3048 0.051 0.5842 0.2794 0.8382 0.3302 0.3556 0.6096 0.4572 0.8636 0.2794 0.254-0.1524 0.5588-0.6096 0.889-1.397 0.3556-0.7874 0.8382-1.524 1.4478-2.2098s1.2192-1.1938 1.8542-1.4986c0.5334-0.2794 1.2192-0.4318 2.032-0.4318 0.8382-0.0508 1.4986 0.0762 2.032 0.3048 0.8382 0.381 1.5494 0.9144 2.1336 1.6256 0.5842 0.7366 0.9398 1.5494 1.1176 2.4384 0.025 0.1778 0.1016 0.381 0.1778 0.6096 0.1016 0.2286 0.2032 0.381 0.3048 0.4572z" stroke-width=".26458"/>
  </g>
 </g>
</svg>
