<svg width="27.502mm" height="31.312mm" version="1.1" viewBox="0 0 27.502 31.312" xmlns="http://www.w3.org/2000/svg">
 <g transform="translate(1235.3 -50.718)">
  <g stroke-width=".26458" style="font-feature-settings:normal;font-variant-caps:normal;font-variant-ligatures:normal;font-variant-numeric:normal" aria-label="">
   <path d="m-1216.1 63.275 0.051 1.9812-2.3114 0.0508c-0.8636 0.0254-1.4732 0-1.8034-0.0254s-0.5334-0.1016-0.5588-0.1778c-0.051-0.1778-0.1016-1.016-0.127-2.5146-0.051-1.4986-0.051-2.3622-0.025-2.54 0.025-0.1524 0.1524-0.254 0.381-0.2794 0.2032-0.0254 0.6858-0.0508 1.4732-0.0508 1.1938 0 1.905 0.0508 2.1336 0.1778 0.254 0.1524 0.4318 0.4826 0.5588 0.9906s0.2032 1.2954 0.2286 2.3876zm-6.2484 2.2606c-0.127 0.0762-0.8382 0.127-2.1336 0.127-1.2954 0.0254-2.0828 0-2.3876-0.0762-0.1524-0.0254-0.254-0.1778-0.2794-0.4318-0.025-0.2794-0.051-0.9144-0.051-1.9304 0-1.524 0.051-2.3622 0.1524-2.54 0.1016-0.1778 0.8636-0.3556 2.2606-0.5588s2.1336-0.2286 2.2606-0.1016c0.051 0.0508 0.1016 0.3556 0.1778 0.889 0.076 0.5334 0.127 1.1684 0.1524 1.8796 0.051 1.0414 0.076 1.7526 0.051 2.1082s-0.1016 0.5588-0.2032 0.635zm0.1016 8.7122c0.1778 0.2286 0.3302 0.381 0.4826 0.4064 0.1524 0.0508 0.3302 0 0.5588-0.127 0.127-0.0762 0.2032-0.3556 0.254-0.8636 0.051-0.508 0.1016-1.524 0.127-3.0226l0.076-3.7084 0.9398-0.0762c0.635-0.0254 1.4732 0.0254 2.5654 0.1778 0.381 0.0508 0.6858 0.0762 0.9144 0.1016s0.4572 0.0254 0.6858 0 0.381-0.0508 0.4826-0.1016c0.1016-0.0254 0.2032-0.127 0.3302-0.254 0.1016-0.1524 0.1778-0.3048 0.2032-0.4572 0.025-0.1778 0.025-0.4064 0.051-0.7112 0.025-0.3048 0.025-0.6096 0-0.9144-0.025-0.3302-0.051-0.7366-0.076-1.27-0.051-0.7366-0.1016-1.3462-0.1524-1.8288-0.076-0.508-0.1524-0.9652-0.254-1.3462s-0.2286-0.6858-0.3556-0.9398c-0.127-0.2032-0.3048-0.4064-0.508-0.5588-0.2286-0.1778-0.4572-0.3048-0.7112-0.3556-0.254-0.1016-0.5842-0.127-0.9652-0.1524-0.8382-0.0508-2.2606 0-4.2672 0.1524s-3.5306 0.254-4.6228 0.3048c-0.635 0.0254-1.0922 0.0762-1.3208 0.1524-0.2286 0.0508-0.381 0.127-0.4318 0.254-0.1016 0.2286-0.1778 1.3716-0.2286 3.4544-0.076 2.1082-0.051 3.302 0.025 3.6068 0.076 0.2794 0.2286 0.508 0.4826 0.6604 0.2286 0.1778 0.6096 0.2794 1.1176 0.3302 0.4826 0.0508 1.1938 0.0762 2.1336 0.0508l2.4384-0.0254-0.1524 3.302c-0.051 1.4478-0.076 2.3876-0.051 2.794 0.025 0.4572 0.1016 0.762 0.2286 0.9652z" stroke-width=".26458"/>
  </g>
 </g>
</svg>
