<svg width="27.502mm" height="31.312mm" version="1.1" viewBox="0 0 27.502 31.312" xmlns="http://www.w3.org/2000/svg">
 <g transform="translate(1235.3 -50.718)">
  <g stroke-width=".26458" style="font-feature-settings:normal;font-variant-caps:normal;font-variant-ligatures:normal;font-variant-numeric:normal" aria-label="">
   <path d="m-1222.3 65.383c0.1524 0.3302 0.3302 0.508 0.5588 0.508s0.4826-0.1524 0.762-0.4826 0.4064-0.6096 0.4064-0.8636c0-0.2286-0.127-0.4826-0.4064-0.7366s-0.5334-0.3556-0.7874-0.3302c-0.254 0.0508-0.4318 0.2794-0.5588 0.7112-0.1016 0.4318-0.1016 0.8128 0.025 1.1938zm6.6802 5.1816c0.4064 0.1016 0.7366 0.1778 1.016 0.254s0.5334 0.1016 0.7874 0.127 0.4318 0.0254 0.5842 0 0.2794-0.0762 0.381-0.1524c0.127-0.1016 0.2032-0.2032 0.254-0.3556 0.051-0.1016 0.1016-0.3048 0.127-0.5334 0.025-0.2286 0.025-0.4826 0.025-0.7366 0-0.2794-0.025-0.6096-0.076-0.9906-0.1016-1.3208-0.076-2.5908 0.025-3.8354 0.076-0.635 0.1016-1.143 0.076-1.4986 0-0.3556-0.051-0.5842-0.1524-0.7112-0.1016-0.127-0.254-0.1778-0.508-0.1778-0.1016 0-0.2032 0.0254-0.3048 0.1016s-0.1778 0.1524-0.2286 0.2286c-0.1016 0.2032-0.2032 1.3716-0.3048 3.4798l-0.1524 3.1496-1.143-0.1016c-0.762-0.0762-3.2512-0.127-7.4676-0.2032s-6.35-0.1778-6.3754-0.3302c-0.025-0.1524-0.051-1.143-0.051-2.9972 0-1.4732-0.051-2.3622-0.1524-2.6924-0.1016-0.3302-0.3556-0.4572-0.7874-0.4064-0.1016 0.0254-0.1524 0.0508-0.2032 0.0762-0.051 0.0254-0.076 0.127-0.127 0.3048-0.025 0.1524-0.051 0.3302-0.051 0.5588s-0.025 0.5842-0.025 1.0922c0 1.2954-0.025 2.4384-0.127 3.3782-0.1016 0.9398-0.1016 1.5748-0.025 1.905l0.1016 0.4572 6.8072 0.127c2.8702 0.0762 4.8006 0.127 5.7658 0.1778 0.9906 0.0508 1.7526 0.1524 2.3114 0.3048z" stroke-width=".26458"/>
  </g>
 </g>
</svg>
