<svg width="27.502mm" height="31.312mm" version="1.1" viewBox="0 0 27.502 31.312" xmlns="http://www.w3.org/2000/svg">
 <g transform="translate(1235.3 -50.718)">
  <g stroke-width=".26458" style="font-feature-settings:normal;font-variant-caps:normal;font-variant-ligatures:normal;font-variant-numeric:normal" aria-label="">
   <path d="m-1219.7 65.206c-1.2954 0.3048-2.2606 0.508-2.8448 0.5842-0.4318 0.0508-0.6858 0.0508-0.8128 0s-0.2794-0.254-0.508-0.6096c-0.381-0.5842-0.7112-1.2954-1.016-2.1336-0.2794-0.8382-0.381-1.3208-0.2794-1.4732 0.1524-0.254 0.5334-0.5334 1.143-0.889 0.635-0.3048 1.2192-0.5588 1.8034-0.7112 2.0574-0.5334 4.0132-0.2794 5.9182 0.762 0.4826 0.2794 0.9906 0.6604 1.4732 1.1684 0.508 0.508 0.762 0.8636 0.762 1.0922 0 0.5842-1.8796 1.3208-5.6388 2.2098zm-4.4958 3.6576c-0.7874 0.2794-1.3462 0.2794-1.6256-0.0254-0.4064-0.381-0.2794-0.7112 0.4064-0.9906 0.4572-0.1778 0.8128-0.2794 1.0414-0.254 0.254 0 0.4318 0.1016 0.5588 0.3302 0.1524 0.2794 0.2032 0.4826 0.1524 0.6096-0.025 0.127-0.2032 0.2286-0.5334 0.3302zm1.524 2.1844c0 0.2286-0.025 0.3556-0.1016 0.4064-0.1016 0.0508-0.4318-0.127-1.016-0.5334-0.4572-0.3302-0.6604-0.5588-0.6096-0.6858 0.051-0.1524 0.3556-0.2286 0.889-0.2286 0.3302 0 0.5334 0.0762 0.6604 0.2286 0.127 0.1524 0.1778 0.4318 0.1778 0.8128zm3.6576-0.127c-0.4318 0.4572-0.7366 0.762-0.9652 0.9144s-0.4318 0.2286-0.6604 0.2286c-0.3302 0-0.5334-0.1016-0.635-0.2794s-0.1524-0.635-0.1778-1.3462v-1.0414l2.0574-0.7112c0.5842-0.2032 1.0922-0.3556 1.524-0.4572s0.6604-0.127 0.7112-0.0762c0.127 0.1016 0 0.4064-0.3302 0.9144s-0.8382 1.1176-1.524 1.8542zm-6.1976 3.6068c-0.4826 0.2286-0.889 0.3302-1.2192 0.3302s-0.762-0.1016-1.2446-0.3302c-0.4064-0.1778-0.7366-0.4572-0.9906-0.8128s-0.381-0.7112-0.381-1.0922c0-0.2794 0.2032-0.5842 0.6096-0.9144 0.381-0.3048 0.889-0.5588 1.524-0.7366l1.1176-0.3556 1.27 1.0414c0.3556 0.2794 0.6604 0.5334 0.9144 0.7874s0.381 0.4064 0.381 0.4826c0 0.1524-0.2286 0.4064-0.635 0.762-0.4572 0.3302-0.889 0.6096-1.3462 0.8382zm-2.8448 1.2954c0.2794 0.127 0.8382 0.1778 1.7272 0.1778 0.8128 0 1.4986-0.127 2.032-0.3302 0.5334-0.254 1.1176-0.6604 1.7272-1.27 0.4318-0.4318 0.7366-0.7112 0.9398-0.762 0.1524-0.1016 0.508-0.127 1.016-0.1016 0.4826 0.0254 0.8128 0 0.9906-0.0508 0.1778-0.1016 0.4572-0.3556 0.889-0.7874 0.889-0.9398 1.8034-2.0828 2.7432-3.4544 0.9144-1.3716 1.3716-2.2606 1.3716-2.6416 0-0.3556-0.1778-0.5588-0.5588-0.5842-0.3556-0.0254-0.9652 0.1016-1.8288 0.4318-1.9558 0.7112-3.302 1.1684-3.9878 1.3462s-1.1176 0.2286-1.2446 0.127c-0.2286-0.2032-0.3048-0.3556-0.1778-0.4826 0.2032-0.2032 1.143-0.508 2.794-0.889 3.3274-0.7874 5.4102-1.4478 6.2738-1.9812 0.2794-0.1778 0.4318-0.3302 0.508-0.4572 0.076-0.127 0.1016-0.4318 0.1016-0.8636s-0.051-0.762-0.1524-0.9398c-0.076-0.2032-0.3302-0.508-0.7112-0.9144-0.8382-0.9144-1.905-1.6256-3.2258-2.1336-1.3208-0.4826-2.667-0.7112-3.9878-0.6858-1.3716 0.0254-2.5146 0.3556-3.4544 0.9398-0.254 0.1524-0.4826 0.2794-0.6604 0.3556-0.1778 0.1016-0.3048 0.127-0.3302 0.1016-0.051-0.0508 0.025-0.2032 0.254-0.4318 0.2286-0.2286 0.508-0.4826 0.8382-0.7874 0.3302-0.254 0.635-0.4826 0.889-0.6096 0.2286-0.127 0.4064-0.254 0.508-0.381 0.2032-0.2794 0.1778-0.508-0.1016-0.6858-0.3302-0.2032-0.762-0.1778-1.3462 0.0508-0.4826 0.2032-1.016 0.5842-1.5748 1.143-0.5334 0.5588-0.8636 1.0414-0.9906 1.4478-0.2286 0.889 0.127 2.4638 1.0922 4.6736l0.7366 1.7018-0.6858 0.2794c-0.127 0.0762-0.3556 0.1778-0.7112 0.3048-0.3048 0.127-0.5334 0.2286-0.6096 0.254-0.2794 0.127-0.4572 0.2286-0.508 0.3048-0.076 0.1016-0.076 0.3302-0.025 0.6604 0.076 0.4826 0.1524 0.8636 0.2286 1.1938 0.051 0.2032 0.025 0.3556-0.051 0.4572-0.1016 0.1016-0.381 0.254-0.8382 0.4572-0.7874 0.381-1.3716 0.7366-1.7018 1.0922s-0.508 0.762-0.508 1.1938c0 0.508 0.1016 0.9906 0.3302 1.4224 0.1778 0.381 0.4572 0.8128 0.889 1.2446 0.4318 0.4572 0.7874 0.7366 1.0922 0.8636z" stroke-width=".26458"/>
  </g>
 </g>
</svg>
