<svg width="27.502mm" height="31.312mm" version="1.1" viewBox="0 0 27.502 31.312" xmlns="http://www.w3.org/2000/svg">
 <g transform="translate(1235.3 -50.718)">
  <g stroke-width=".26458" style="font-feature-settings:normal;font-variant-caps:normal;font-variant-ligatures:normal;font-variant-numeric:normal" aria-label="">
   <path d="m-1219.2 73.232c-0.6604 0.2794-1.651 0.4318-2.9464 0.4826-0.9144 0.0508-1.4986 0.0508-1.7526 0.0254-0.254-0.0508-0.508-0.1778-0.7366-0.3556-0.3556-0.2794-0.635-0.3556-0.8382-0.2794-0.3302 0.127-0.8636-0.1778-1.5748-0.8636-0.7366-0.6858-1.3208-1.4732-1.778-2.3622-0.7366-1.4478-1.0668-3.0226-0.9906-4.7498 0.051-1.7272 0.4826-3.175 1.2954-4.318 0.7366-1.0414 1.6002-1.9558 2.5654-2.7432s1.7018-1.1684 2.1844-1.143c0.1524 0 0.3302-0.0254 0.5588-0.1016 0.2286-0.0508 0.4064-0.127 0.5334-0.2032 0.2032-0.127 0.4064-0.2032 0.6096-0.254 0.1778 0 0.4826 0 0.8636 0.0508l0.9906 0.127-0.127-0.5842-0.1016-0.5842h0.8382c0.5588 0 1.0414 0.0762 1.4478 0.254 0.4826 0.2032 1.2192 0.8636 2.2352 1.9812 0.9906 1.1176 1.6764 2.032 2.032 2.7432 0.2794 0.5588 0.4318 0.9906 0.508 1.2954 0.051 0.3048 0.076 0.8382 0.076 1.6256-0.025 1.143-0.1016 2.0574-0.2286 2.7686-0.3302 1.6002-1.0414 3.0734-2.0828 4.3942-1.0414 1.3716-2.2352 2.286-3.5814 2.794zm-10.566 5.3086c0.076 0.3302 0.2794 0.4826 0.5588 0.4826s0.6096-0.1524 0.9652-0.4572 0.9652-0.9398 1.8288-1.9304l1.4732-1.6764 1.0668 0.1524c0.4826 0.0762 1.1938 0.1016 2.0828 0.0762s1.6256-0.1016 2.2352-0.2286c0.2286-0.0254 0.4064 0 0.5588 0.127s0.4064 0.4318 0.762 0.9398c0.4318 0.5842 0.9652 1.1684 1.5494 1.7526s0.9906 0.8636 1.1684 0.8636c0.127 0 0.2794-0.0508 0.4572-0.1778 0.1778-0.1016 0.1778-0.3048 0.025-0.6096-0.1778-0.3302-0.6096-0.9398-1.3208-1.8796-0.7366-0.9652-1.1176-1.4732-1.1176-1.5494s0.5588-0.635 1.651-1.7272c1.2192-1.2446 2.1082-2.4384 2.667-3.6068 0.5334-1.1684 0.9144-2.667 1.1176-4.4704 0.1778-1.5748 0.076-2.921-0.3048-4.0132-0.381-1.0922-1.1938-2.3368-2.3876-3.7084-0.7366-0.8382-1.397-1.4986-1.9812-1.9558-0.5842-0.4318-1.1684-0.7366-1.7526-0.889-0.5334-0.127-1.2954-0.127-2.286 0s-1.7272 0.3556-2.159 0.635-1.0922 0.635-1.9304 1.0414-1.7526 1.1176-2.794 2.1082-1.7526 1.905-2.1844 2.7178c-0.6858 1.3462-1.0668 2.794-1.143 4.3434-0.076 1.5494 0.1524 3.048 0.7112 4.4704 0.5334 1.4732 1.3462 2.7178 2.4384 3.7846l1.1938 1.1938-0.3556 0.4064-0.051 0.0508c-1.4478 1.6256-2.2606 2.5908-2.4892 2.8956-0.2286 0.3302-0.3048 0.6096-0.254 0.8382z" stroke-width=".26458"/>
  </g>
 </g>
</svg>
