<svg width="27.502mm" height="31.312mm" version="1.1" viewBox="0 0 27.502 31.312" xmlns="http://www.w3.org/2000/svg">
 <g transform="translate(1235.3 -50.718)">
  <g stroke-width=".26458" style="font-feature-settings:normal;font-variant-caps:normal;font-variant-ligatures:normal;font-variant-numeric:normal" aria-label="">
   <path d="m-1220.1 64.113c-0.4572 0.2286-0.9398 0.3302-1.4732 0.2794-0.508-0.0762-0.9906-0.2794-1.397-0.6096-0.4572-0.381-0.762-0.7874-0.9652-1.2192-0.1778-0.4572-0.2794-1.0668-0.2794-1.8034 0-0.7874 0.1524-1.4224 0.4318-1.905 0.2032-0.3302 0.3556-0.5588 0.508-0.6604 0.127-0.0762 0.4318-0.1524 0.8382-0.2032s0.7112-0.0508 0.889-0.0254c0.2032 0.0254 0.4318 0.1524 0.7366 0.3556 0.635 0.4318 1.1684 0.9906 1.5748 1.651 0.4318 0.7112 0.635 1.3462 0.635 1.9558 0 0.4064-0.127 0.8128-0.4064 1.2192-0.254 0.4064-0.635 0.7366-1.0922 0.9652zm-1.9558 13.03c-0.1778 0.0254-0.4318 0.0508-0.762 0.1016-1.7272 0.254-2.7686 0.381-3.048 0.4064-0.3048 0.0254-0.4572-0.0508-0.508-0.1778 0-0.0254-0.025-0.0254-0.025-0.0508-0.076-0.2032 0.051-0.5334 0.4064-0.9906 0.6604-0.9144 1.397-1.9812 2.1844-3.2512 0.8128-1.2192 1.3716-2.2098 1.7018-2.8956 0.508-0.9906 0.762-1.524 0.8128-1.5748 0.076-0.0762 0.3302 0.1524 0.7874 0.6604 0.4572 0.4826 0.9906 1.1176 1.5748 1.9304 0.6096 0.762 1.0922 1.4986 1.4986 2.1844 0.4064 0.6604 0.6858 1.2954 0.8636 1.8796s0.1778 0.9398 0.025 1.0414c-0.127 0.0762-0.635 0.1778-1.5494 0.2286-0.889 0.1016-2.2098 0.254-3.9624 0.508zm-5.6896 1.0414c0.3302 0.2794 0.5842 0.4572 0.7874 0.5334 0.1778 0.0762 0.5588 0.1016 1.0922 0.1016 0.8128 0 1.7272-0.1016 2.7686-0.2794 1.1176-0.2032 2.5146-0.381 4.191-0.5334 1.7018-0.1778 2.7178-0.2286 3.048-0.1778 0.3556 0.0762 0.6604 0 0.9144-0.1778 0.1524-0.127 0.2286-0.2286 0.254-0.3048 0.025-0.0762 0.025-0.2032-0.025-0.3556-0.025-0.1778-0.127-0.508-0.3048-1.016-0.2794-0.9144-0.889-2.0828-1.8288-3.5306s-2.0828-2.9464-3.429-4.5212c-0.254-0.2794-0.4064-0.508-0.4572-0.6858-0.051-0.1524-0.051-0.4064 0-0.7366s0.1524-0.5842 0.254-0.6858c0.127-0.1524 0.4064-0.3048 0.8636-0.4826 0.6096-0.254 1.1176-0.6096 1.5494-1.0414 0.4064-0.4318 0.6858-0.9398 0.8128-1.4986 0.1016-0.3302 0.1778-0.5588 0.2794-0.6858 0.076-0.127 0.2286-0.2286 0.381-0.254 0.2794-0.0762 0.5842-0.127 0.9144-0.2032 0.1524-0.0254 0.2794-0.0762 0.3556-0.1524 0.2286-0.1778 0.2032-0.4318-0.076-0.7112-0.3048-0.3556-0.762-0.5334-1.3462-0.5334-0.3302 0-0.6096-0.0762-0.8636-0.254-0.2286-0.1778-0.7112-0.635-1.4478-1.3716l-1.5748-1.651v-1.1684c0-0.5334-0.051-0.8636-0.1016-1.016-0.051-0.1778-0.1778-0.3302-0.381-0.4572-0.3556-0.2286-0.6096-0.254-0.7874-0.0762-0.1524 0.1778-0.254 0.5842-0.254 1.2192v0.9906l-0.9144 0.127c-0.5588 0.0762-1.016 0.2794-1.397 0.635-0.3556 0.381-0.6858 0.9144-0.9652 1.6002-0.1524 0.381-0.2794 0.635-0.3556 0.7366-0.1016 0.0762-0.2794 0.127-0.5842 0.127-0.3302 0-0.5588 0.1016-0.7112 0.2794-0.127 0.2032-0.127 0.4318 0 0.6858s0.3556 0.4318 0.6858 0.5588c0.254 0.0762 0.4572 0.2286 0.6096 0.4318 0.1778 0.2286 0.381 0.5842 0.635 1.1176 0.3048 0.6096 0.635 1.1176 1.016 1.4986 0.3556 0.381 0.8636 0.762 1.4986 1.143 0.1016 0.0762 0.1778 0.2032 0.2794 0.3556 0.076 0.2032 0.1524 0.381 0.1524 0.6096 0.051 0.3302 0.025 0.635-0.051 0.9144s-0.2794 0.762-0.5842 1.4224c-0.508 1.0668-1.1176 2.1844-1.8542 3.3782s-1.4478 2.2098-2.159 3.0988c-0.254 0.3048-0.4318 0.5334-0.5588 0.7112s-0.254 0.3556-0.4064 0.5334c-0.127 0.2032-0.2286 0.3556-0.2794 0.4572-0.051 0.0762-0.1016 0.2032-0.127 0.3048-0.051 0.1524-0.051 0.2286-0.051 0.2794 0.025 0.0508 0.051 0.127 0.1016 0.2286 0.051 0.0762 0.1016 0.1524 0.1778 0.2286 0.051 0.0762 0.1524 0.1524 0.254 0.254z" stroke-width=".26458"/>
  </g>
 </g>
</svg>
