<svg width="27.502mm" height="31.312mm" version="1.1" viewBox="0 0 27.502 31.312" xmlns="http://www.w3.org/2000/svg">
 <g transform="translate(1235.3 -50.718)">
  <g stroke-width=".26458" style="font-feature-settings:normal;font-variant-caps:normal;font-variant-ligatures:normal;font-variant-numeric:normal" aria-label="">
   <path d="m-1219.7 62.869c-0.1524 0.1778-0.3302 0.3302-0.5588 0.4064-0.2032 0.0762-0.5334 0.1524-0.9652 0.1778-0.5334 0.0508-0.8636 0.0508-1.016 0.0254-0.127-0.0508-0.3048-0.1778-0.4826-0.4064-0.2286-0.254-0.3302-0.5842-0.3302-0.9652 0-0.4064 0.076-0.8128 0.2286-1.1684 0.1524-0.4064 0.381-0.7366 0.6858-1.0668s0.635-0.5588 1.016-0.7112c0.3302-0.127 0.5588-0.2032 0.6604-0.1524 0.127 0 0.3048 0.1524 0.5842 0.4064 0.5334 0.5334 0.8128 1.0922 0.8636 1.6764 0.025 0.5842-0.2032 1.1938-0.6858 1.778zm-2.9718 12.192c0.4826 0.1524 1.0922 0.2032 1.8034 0.1016 0.7366-0.0508 1.3208-0.2286 1.778-0.4826 0.2032-0.127 0.4572-0.3302 0.7366-0.5842 0.254-0.2286 0.4826-0.4826 0.6604-0.7366 0.3302-0.508 0.5842-1.143 0.762-1.905s0.254-1.4732 0.1778-2.1336c-0.051-0.6858-0.2286-1.143-0.4826-1.4224-0.1778-0.1778-0.3302-0.254-0.4826-0.3048-0.127 0-0.4318 0.0254-0.889 0.127-0.6604 0.1778-1.397 0.2794-2.159 0.3556-0.6604 0.0762-1.143 0.2032-1.397 0.381-0.2794 0.2032-0.381 0.4826-0.2794 0.8636 0.051 0.2794 0.2286 0.4572 0.4826 0.5588 0.254 0.0762 0.5334 0.0762 0.8636-0.0508 0.2794-0.127 0.8128-0.2286 1.5748-0.3048l1.143-0.127v0.7366c0 0.7874-0.2794 1.5748-0.8636 2.3876-0.5588 0.762-1.1938 1.2192-1.8542 1.3462-0.6858 0.127-1.3462-0.0508-2.0066-0.508-0.635-0.4572-1.0668-1.0668-1.27-1.8034-0.5588-1.9558 0.051-3.8862 1.8034-5.842 0.381-0.4318 0.6604-0.7112 0.8382-0.8128s0.4572-0.1524 0.8128-0.1524c0.9144 0 1.778-0.508 2.6162-1.5494 0.2032-0.2794 0.3556-0.5334 0.4572-0.7874 0.076-0.2286 0.127-0.5842 0.1778-1.0414l0.076-1.143-0.889-0.9398c-0.508-0.508-0.9652-0.889-1.3208-1.1176-0.381-0.2286-0.7366-0.3556-1.0414-0.3556-0.3302 0-0.8128 0.1778-1.4986 0.5334-0.6604 0.381-1.143 0.7112-1.397 1.016-0.4572 0.5588-0.7112 1.27-0.7874 2.1336-0.051 0.8636 0.1016 1.5748 0.508 2.1336 0.254 0.3556 0.4064 0.5588 0.381 0.6604 0 0.0508-0.254 0.4064-0.7366 1.0414-0.5334 0.6604-0.9652 1.3462-1.2954 2.0574-0.3302 0.7366-0.508 1.397-0.5588 1.9812-0.1016 1.2954 0.1778 2.4892 0.8382 3.556 0.6858 1.0668 1.5748 1.778 2.7178 2.1336z" stroke-width=".26458"/>
  </g>
 </g>
</svg>
