<svg width="27.502mm" height="31.312mm" version="1.1" viewBox="0 0 27.502 31.312" xmlns="http://www.w3.org/2000/svg">
 <g transform="translate(1235.3 -50.718)">
  <g stroke-width=".26458" style="font-feature-settings:normal;font-variant-caps:normal;font-variant-ligatures:normal;font-variant-numeric:normal" aria-label="">
   <path d="m-1214.4 69.092c-0.2032 0.1524-0.4318 0.254-0.7112 0.2794s-0.762 0.0508-1.4732 0.0508c-1.651-0.0254-2.9972-0.2032-4.1148-0.5334-1.0668-0.3302-2.1844-0.9144-3.2766-1.7526-0.2794-0.2032-0.5334-0.4064-0.6858-0.6096-0.2032-0.2032-0.2794-0.3556-0.254-0.4318 0.025-0.1778 0.508-0.5334 1.4732-1.016 0.9144-0.4826 1.905-0.9144 2.921-1.27 0.6858-0.254 1.2192-0.4064 1.5494-0.4572s0.7366-0.0508 1.1684-0.0254c0.5588 0.0508 1.1684 0.2032 1.8796 0.4064 0.6604 0.254 1.2192 0.4826 1.6002 0.7366 0.4318 0.2794 0.7112 0.7366 0.889 1.3462 0.1524 0.5842 0.1524 1.1938-0.051 1.8288-0.1524 0.6096-0.4826 1.0922-0.9144 1.4478zm-16.561 2.3368c0.4572 0.5334 0.9652 0.254 1.524-0.8382 0.254-0.4826 0.7112-1.1176 1.3462-1.8288 0.635-0.762 1.143-1.2192 1.4732-1.397 0.127-0.0762 0.3302-0.0508 0.5842 0.0762 0.2286 0.127 0.635 0.381 1.1684 0.762 1.3462 0.9906 2.6162 1.651 3.7846 2.032 1.1684 0.381 2.6162 0.5588 4.3688 0.5842 1.143 0.0254 2.0066-0.0508 2.5146-0.1778 0.5588-0.1524 1.016-0.4572 1.397-0.9144 0.381-0.4318 0.6604-0.9144 0.7874-1.4224s0.1778-1.143 0.127-1.8796c-0.076-1.0922-0.3556-1.9304-0.889-2.4892-0.5334-0.5842-1.4732-1.0922-2.8194-1.524-1.3716-0.4572-2.7432-0.5842-4.1402-0.3556s-2.9718 0.8128-4.7752 1.778l-1.7272 0.9398-1.5494-1.7018c-0.6096-0.6604-1.0414-1.1176-1.3462-1.3462-0.254-0.2286-0.508-0.3556-0.7112-0.3556-0.3302 0-0.508 0.127-0.6096 0.3556-0.051 0.2286 0 0.508 0.2286 0.8382 0.1778 0.3302 0.635 0.889 1.3462 1.6764 0.7366 0.8128 1.0922 1.27 1.1176 1.3716 0 0.1016-0.508 0.6604-1.4986 1.6764-0.4318 0.4318-0.7874 0.8382-1.143 1.2446-0.3048 0.4064-0.508 0.6858-0.5588 0.8128-0.127 0.381-0.2032 0.7874-0.2032 1.1938 0 0.4318 0.076 0.7112 0.2032 0.889z" stroke-width=".26458"/>
  </g>
 </g>
</svg>
