<svg width="27.502mm" height="31.312mm" version="1.1" viewBox="0 0 27.502 31.312" xmlns="http://www.w3.org/2000/svg">
 <g transform="translate(1235.3 -50.718)">
  <g stroke-width=".26458" style="font-feature-settings:normal;font-variant-caps:normal;font-variant-ligatures:normal;font-variant-numeric:normal" aria-label="">
   <path d="m-1220.7 63.072c0.3048 0.127 0.4826 0.1016 0.5588-0.0254 0.076-0.127 0.1016-0.5334 0.1016-1.1684 0-0.6858-0.1016-1.2446-0.3048-1.6002-0.2032-0.4064-0.4826-0.5334-0.8128-0.4572-0.1524 0.0508-0.254 0.1524-0.3048 0.254-0.051 0.1524-0.076 0.381-0.076 0.7366 0 0.5842 0.076 1.0922 0.2286 1.4986 0.1524 0.4318 0.3556 0.6858 0.6096 0.762zm-4.699-0.3048c0.4064 0.4064 0.8128 0.635 1.2446 0.7112 0.381 0.0508 0.5588-0.0762 0.5588-0.381 0-0.1016-0.025-0.2032-0.076-0.3302-0.076-0.127-0.1524-0.2032-0.2286-0.2794-0.2032-0.1778-0.5588-0.5842-1.0414-1.2446-0.2794-0.3556-0.508-0.6096-0.6604-0.762-0.2032-0.1524-0.3556-0.2286-0.5334-0.2286-0.3556 0-0.4826 0.2286-0.4064 0.6604 0.1016 0.5842 0.4826 1.1938 1.143 1.8542zm8.128 1.1176c0.2286 0.0508 0.381 0.0762 0.4572 0.1016 0.076 0.0254 0.3556-0.4572 0.8128-1.4224 0.4318-0.9398 0.6604-1.524 0.6604-1.7272 0-0.0762-0.051-0.2032-0.1016-0.3302-0.1016-0.127-0.1778-0.254-0.2794-0.3556-0.2794-0.254-0.5334-0.2794-0.7366-0.0762-0.2286 0.2032-0.4826 0.7112-0.8128 1.4986-0.2794 0.7366-0.4318 1.27-0.4318 1.651s0.1524 0.5842 0.4318 0.6604zm-2.6162 7.5946c-0.5334 0.2794-1.1938 0.4064-1.9304 0.4064-0.635 0-1.1176-0.0508-1.4732-0.1778s-0.6858-0.3302-1.016-0.635c-0.254-0.2286-0.5588-0.6858-0.9144-1.3462-0.3556-0.7112-0.5842-1.2446-0.6858-1.6764-0.076-0.381-0.1524-0.6604-0.2286-0.889-0.025-0.1016 0-0.1778 0.1016-0.2032 0.2286-0.0762 1.6002-0.127 4.1148-0.127 1.8542 0 3.0734 0.0254 3.5814 0.0508 0.5588 0.0254 0.8382 0.1016 0.889 0.2286 0.076 0.1778-0.025 0.6858-0.3302 1.4478-0.254 0.8128-0.5588 1.4224-0.8382 1.8542-0.127 0.2032-0.3302 0.4064-0.5588 0.6096s-0.4826 0.3556-0.7112 0.4572zm-4.0132 1.3462c0.635 0.3048 1.397 0.4318 2.3114 0.4064 0.889-0.0254 1.7272-0.2286 2.4638-0.5842 0.7112-0.3302 1.2446-0.7874 1.6256-1.3208s0.8128-1.524 1.3208-2.921c0.3048-0.8382 0.4826-1.397 0.5334-1.7018 0.051-0.3048 0.025-0.5588-0.051-0.7366l-0.2032-0.4572h-4.1656c-2.7686 0-4.6482-0.0762-5.6388-0.2032-0.635-0.1016-1.0668-0.1524-1.27-0.1524-0.2032 0.0254-0.381 0.1016-0.508 0.2286s-0.2032 0.3048-0.2032 0.4826c0 0.2032 0.076 0.6604 0.2032 1.3716 0.2794 1.3462 0.7112 2.5146 1.3208 3.5052 0.635 0.9652 1.3716 1.651 2.2606 2.0828z" stroke-width=".26458"/>
  </g>
 </g>
</svg>
