<svg width="27.502mm" height="31.312mm" version="1.1" viewBox="0 0 27.502 31.312" xmlns="http://www.w3.org/2000/svg">
 <g transform="translate(1235.3 -50.718)">
  <g stroke-width=".26458" style="font-feature-settings:normal;font-variant-caps:normal;font-variant-ligatures:normal;font-variant-numeric:normal" aria-label="">
   <path d="m-1218.5 74.045c0.025 0.1016 0.076 0.1778 0.076 0.2286 0.051 0.0508 0.1016 0.1016 0.1524 0.127 0.1016 0.0508 0.1524 0.0762 0.254 0.1016 0.051 0 0.2032 0 0.381-0.0254s0.381-0.0508 0.5842-0.0762c0.1778-0.0254 0.4572-0.0762 0.8128-0.1524 0.889-0.1778 1.7272-0.4318 2.4892-0.7874 0.7874-0.3556 1.1938-0.6858 1.2192-0.9652 0.025-0.3048-0.4318-1.3462-1.4224-3.0988-0.9906-1.7526-2.4892-4.2672-4.5212-7.5438-0.9906-1.5494-1.5748-2.4892-1.8288-2.794-0.2032-0.3302-0.4064-0.4826-0.5588-0.4826-0.3048 0-0.6604 0.6096-1.0668 1.8542-0.381 1.2192-0.9144 3.2766-1.5494 6.1976-0.7366 3.2258-1.2954 5.0292-1.7018 5.4356-0.1016 0.127-0.3302 0.2032-0.6604 0.254-0.3556 0.0254-0.9652 0.0508-1.8288 0.0508-0.8382 0-1.4224 0.0254-1.8288 0.0508-0.3556 0.0508-0.635 0.1524-0.7874 0.254-0.1524 0.1524-0.2286 0.3556-0.2286 0.635 0 0.3302 0.1016 0.5842 0.3302 0.762s0.4826 0.2286 0.762 0.1524c0.3302-0.0762 1.143-0.127 2.3876-0.1016h0.889c0.254 0 0.4826 0 0.7112-0.0254s0.4064-0.0254 0.5588-0.0508c0.1016-0.0254 0.254-0.0508 0.381-0.1016 0.127-0.0762 0.2286-0.127 0.3048-0.2032 0.076-0.0762 0.1524-0.1524 0.2286-0.3048 0.1016-0.1016 0.1778-0.254 0.254-0.3556 0.051-0.1524 0.127-0.3048 0.2032-0.5334 0.127-0.3302 0.3048-0.9398 0.5588-1.778 0.2032-0.8382 0.4318-1.6764 0.6096-2.5146 0.3302-1.524 0.5842-2.7178 0.7874-3.6068 0.2032-0.8636 0.381-1.5748 0.5334-2.0828 0.127-0.5588 0.254-0.889 0.3048-1.016 0.1016-0.1524 0.1524-0.2032 0.2286-0.127 0.508 0.5334 1.6256 2.286 3.3274 5.2324 1.7272 2.9464 2.5908 4.5974 2.5908 4.9276 0 0.381-0.6858 0.6604-2.032 0.889-0.9398 0.1524-1.524 0.3302-1.778 0.5588-0.2794 0.2032-0.3048 0.5334-0.127 1.016z" stroke-width=".26458"/>
  </g>
 </g>
</svg>
