<svg width="27.502mm" height="31.312mm" version="1.1" viewBox="0 0 27.502 31.312" xmlns="http://www.w3.org/2000/svg">
 <g transform="translate(1235.3 -50.718)">
  <g stroke-width=".26458" style="font-feature-settings:normal;font-variant-caps:normal;font-variant-ligatures:normal;font-variant-numeric:normal" aria-label="">
   <path d="m-1217 63.021c-0.3302 0.3048-0.6096 0.508-0.8382 0.6604-0.2286 0.1016-0.508 0.2032-0.8382 0.254-0.4826 0.0762-0.7874 0.0508-0.9398-0.0508-0.127-0.1016-0.1524-0.3302-0.051-0.6604 0.1524-0.5334 0.5334-1.0668 1.1176-1.6256 0.5842-0.508 1.0922-0.7874 1.524-0.7874 0.254 0 0.4826 0.127 0.6858 0.381 0.2286 0.2286 0.2794 0.4572 0.2286 0.6858-0.025 0.1016-0.127 0.254-0.3048 0.4826s-0.381 0.4318-0.5842 0.6604zm-7.2644 3.048c-0.4318 0.127-0.762 0.1778-0.9652 0.1524-0.2286 0-0.4826-0.0762-0.7874-0.254-0.3556-0.1778-0.6096-0.4826-0.8128-0.8636-0.1778-0.381-0.254-0.7366-0.1524-1.0668 0.076-0.381 0.2032-0.6604 0.381-0.762 0.1524-0.1524 0.4318-0.2032 0.8382-0.2032s0.7874 0.127 1.143 0.381c0.3302 0.254 0.6604 0.6604 1.016 1.2446 0.1016 0.1778 0.2032 0.3302 0.254 0.4064 0.051 0.1016 0.076 0.2032 0.1016 0.3048 0 0.0762 0 0.1524-0.025 0.2032s-0.076 0.1016-0.1778 0.1524c-0.076 0.0762-0.2032 0.127-0.3048 0.1524-0.127 0.0254-0.3048 0.0762-0.508 0.1524zm1.4224 7.4168c0.051 0.2032 0.254 0.3048 0.5588 0.2794 0.3302-0.0254 0.5842-0.127 0.8128-0.3556 0.1524-0.1524 0.2286-0.3302 0.254-0.4826 0.025-0.2032 0.025-0.4826 0-0.889-0.051-0.5588-0.025-1.3716 0.076-2.4638 0.127-1.0668 0.2794-2.1082 0.5334-3.0988 0.1016-0.5842 0.2032-0.9398 0.3048-1.0922 0.076-0.1524 0.1778-0.2032 0.3302-0.1524 0.2032 0.0762 0.6096 0.1524 1.2446 0.2286 0.6096 0.0508 1.0922-0.0254 1.4732-0.2032 0.381-0.2032 0.889-0.635 1.5494-1.3208 0.4318-0.4318 0.7112-0.762 0.8382-0.9652 0.1016-0.2286 0.1778-0.508 0.1778-0.8382 0-0.5842-0.1016-1.0922-0.3302-1.5494-0.2032-0.4064-0.4826-0.7366-0.8636-0.9144-0.3556-0.2032-0.762-0.3048-1.1938-0.3048-0.4318-0.0254-0.889 0.1016-1.3716 0.3556-0.508 0.2286-0.9652 0.5842-1.3716 1.0668-0.4064 0.4572-0.7112 0.8636-0.9144 1.27-0.2032 0.3556-0.4318 0.9144-0.6604 1.6256s-0.381 1.0668-0.4826 1.0668c-0.076 0-0.381-0.3556-0.889-1.0668-0.5334-0.7366-1.016-1.2446-1.4478-1.4732s-1.0668-0.3556-1.905-0.3556c-0.3556 0-0.6096 0-0.7874 0.0254-0.2032 0.0254-0.3556 0.0508-0.508 0.1016s-0.2794 0.127-0.3556 0.254c-0.1016 0.127-0.1778 0.254-0.2286 0.4318-0.076 0.1524-0.1524 0.381-0.2286 0.6604-0.2286 0.7874-0.1524 1.6002 0.254 2.3876 0.381 0.7874 0.9652 1.3716 1.778 1.7272 0.381 0.1778 0.6858 0.254 0.9398 0.2794 0.2286 0.0254 0.635-0.0254 1.2446-0.1016 0.8636-0.127 1.3462-0.1778 1.4224-0.1016 0.051 0.0762 0.076 0.5842 0.025 1.4986-0.025 0.9652-0.1016 1.8542-0.2032 2.7432-0.127 0.9652-0.1524 1.5494-0.076 1.7272z" stroke-width=".26458"/>
  </g>
 </g>
</svg>
