<svg width="27.502mm" height="31.312mm" version="1.1" viewBox="0 0 27.502 31.312" xmlns="http://www.w3.org/2000/svg">
 <g transform="translate(1235.3 -50.718)">
  <g stroke-width=".26458" style="font-feature-settings:normal;font-variant-caps:normal;font-variant-ligatures:normal;font-variant-numeric:normal" aria-label="î€">
   <path d="m-1225.6 74.654c0.3302 0.3302 0.5588 0.508 0.7366 0.508 0.1778-0.0254 0.3048-0.0508 0.381-0.127 0.076-0.0762 0.1524-0.254 0.2032-0.5588 0.051-0.3048 0.076-0.6858 0.1016-1.1684 0.025-0.4826 0.025-1.1938 0.025-2.1336v-3.5052l1.2954-0.127c0.5334-0.0508 0.9144-0.0508 1.143-0.0508 0.254 0.0508 0.4572 0.1016 0.635 0.2032 1.4478 0.9398 2.286 2.54 2.4892 4.7752 0.076 0.6858 0.2286 1.2192 0.4572 1.6256 0.2286 0.381 0.508 0.5334 0.7874 0.4318 0.2032-0.0762 0.3048-0.4572 0.3048-1.0922 0.025-0.6604-0.051-1.397-0.254-2.2352-0.1524-0.8382-0.4064-1.524-0.6858-2.1082-0.127-0.2286-0.3048-0.508-0.5842-0.8382-0.254-0.3556-0.508-0.6604-0.7874-0.9398l-0.9398-0.9652 0.889-0.9144c0.8128-0.8128 1.4732-1.8796 1.9812-3.2004s0.6604-2.3622 0.4826-3.1496c-0.076-0.2794-0.1778-0.4826-0.254-0.5842-0.076-0.127-0.2032-0.1778-0.381-0.2032-0.3302-0.0508-0.5842 0.0508-0.7366 0.254-0.127 0.254-0.2286 0.7112-0.254 1.4478-0.076 0.8636-0.2286 1.6002-0.508 2.2098-0.254 0.5842-0.6858 1.2192-1.3208 1.905-0.5588 0.6096-1.0668 1.016-1.524 1.1938-0.4572 0.2032-0.9906 0.254-1.6002 0.1778-0.381-0.0508-0.6096-0.1016-0.6858-0.1778-0.1016-0.0762-0.1524-0.2032-0.1524-0.4318 0-0.889-0.076-2.1844-0.2032-3.8354-0.1524-1.6764-0.2794-2.6162-0.3556-2.8448-0.127-0.3302-0.2794-0.4826-0.508-0.4572-0.1524 0.0254-0.254 0.3048-0.2794 0.8128-0.025 0.5334-0.051 1.9304-0.051 4.2164 0 3.302-0.051 6.0198-0.1778 8.1788l-0.1524 3.2258z" stroke-width=".26458"/>
  </g>
 </g>
</svg>
