<svg width="27.502mm" height="31.312mm" version="1.1" viewBox="0 0 27.502 31.312" xmlns="http://www.w3.org/2000/svg">
 <g transform="translate(1235.3 -50.718)">
  <g stroke-width=".26458" style="font-feature-settings:normal;font-variant-caps:normal;font-variant-ligatures:normal;font-variant-numeric:normal" aria-label="">
   <path d="m-1217 60.938c-0.3048 0.0762-0.8128 0.127-1.524 0.1016-0.6858 0-1.0668-0.0508-1.1176-0.127-0.076-0.1016-0.127-0.8636-0.1524-2.286l-0.025-2.159 1.143-0.0508c0.508-0.0254 0.8382 0 0.9906 0.0508 0.1524 0.0254 0.2794 0.1524 0.4064 0.3302 0.1778 0.2286 0.3302 0.7366 0.4572 1.4478 0.1524 0.762 0.2286 1.3716 0.2286 1.905 0 0.2794-0.025 0.4572-0.076 0.5842-0.051 0.1016-0.1524 0.1778-0.3302 0.2032zm-4.0894-1.9304v2.2606h-1.5748c-0.4318 0-0.8382-0.0254-1.1684-0.0508s-0.4826-0.0762-0.508-0.127c-0.076-0.1016-0.051-0.762 0.076-1.9812 0.127-1.2446 0.2032-1.8796 0.2794-1.9558 0.051-0.0508 0.381-0.127 0.9652-0.2286 0.6096-0.1016 1.0922-0.1524 1.4224-0.1524l0.508-0.0254zm4.2926 18.745c0.2032 0.127 0.381 0.1016 0.5588-0.0762s0.3048-0.7874 0.3302-1.8034c0.051-0.9906 0.025-2.0574-0.1016-3.175-0.3048-2.9464-1.3208-4.8006-3.0226-5.5626l-0.7874-0.3302 0.1016-1.9558c0.025-0.5334 0.076-1.016 0.127-1.4478 0.076-0.4318 0.127-0.6604 0.1778-0.7112 0.051-0.0508 0.2794-0.1016 0.6858-0.1778 0.4318-0.0508 0.889-0.0762 1.4224-0.1016 1.2954-0.0762 2.0066-0.1778 2.0828-0.3048 0.1778-0.254 0.1524-1.2192-0.1016-2.8448-0.254-1.6764-0.5334-2.7178-0.8128-3.1496-0.1778-0.3302-0.508-0.5842-0.9398-0.762-0.4318-0.2032-0.9144-0.3048-1.4224-0.3048-0.5842 0-1.8034 0.127-3.6576 0.4064-1.8542 0.254-2.8194 0.4318-2.8956 0.508-0.1016 0.1016-0.2032 0.4826-0.3048 1.1684-0.076 0.6604-0.1524 1.3716-0.2032 2.159-0.051 0.7874-0.076 1.4986-0.051 2.159 0.025 0.6858 0.1016 1.0668 0.1778 1.143 0.127 0.1524 0.889 0.2032 2.286 0.1778l2.0574-0.0508v3.9878l-0.6096 0.3302c-0.1778 0.0762-0.4064 0.254-0.7112 0.508-0.3048 0.2286-0.5842 0.4826-0.8382 0.7366-0.381 0.381-0.6858 0.7366-0.8636 1.0414-0.1778 0.2794-0.3302 0.7366-0.508 1.3208-0.2794 0.9398-0.4826 1.8796-0.635 2.7686-0.051 0.381-0.127 0.6858-0.2032 0.9398-0.076 0.2794-0.1524 0.4064-0.2032 0.4064-0.127 0-0.4064-0.254-0.8636-0.762-0.3556-0.381-0.6604-0.6096-0.9144-0.7112-0.254-0.0762-0.4318 0-0.508 0.2286-0.076 0.2032 0 0.4826 0.2286 0.889 0.2286 0.3556 0.6604 0.9398 1.2954 1.6764 0.4318 0.5334 0.762 0.889 0.9906 1.0668 0.2286 0.1524 0.4318 0.2286 0.6096 0.2032 0.2286-0.0254 0.3556-0.1524 0.4318-0.381 0.076-0.2286 0.1778-0.9144 0.3302-2.1082 0.1778-1.4732 0.3302-2.4384 0.4318-2.8956 0.127-0.4826 0.3556-1.0414 0.6858-1.7018 0.3048-0.5842 0.6858-1.0414 1.1176-1.397 0.4318-0.3048 0.889-0.4826 1.3208-0.508 0.4572-0.0254 0.889 0.127 1.3208 0.4064 0.4318 0.3048 0.8128 0.7366 1.0922 1.3208 0.2286 0.4318 0.4064 1.0414 0.5334 1.8796 0.127 0.8128 0.254 1.9558 0.3302 3.4036 0.051 0.889 0.1016 1.4732 0.1524 1.8034 0.076 0.3302 0.1524 0.508 0.2794 0.5842z" stroke-width=".26458"/>
  </g>
 </g>
</svg>
