<svg width="27.502mm" height="31.312mm" version="1.1" viewBox="0 0 27.502 31.312" xmlns="http://www.w3.org/2000/svg">
 <g transform="translate(1235.3 -50.718)">
  <g stroke-width=".26458" style="font-feature-settings:normal;font-variant-caps:normal;font-variant-ligatures:normal;font-variant-numeric:normal" aria-label="">
   <path d="m-1219 74.858c-1.7272 0.5588-3.3274 0.7112-4.8006 0.4826-1.4478-0.2286-2.667-0.8382-3.6576-1.8288-0.4826-0.4826-0.889-1.016-1.1684-1.5494-0.2794-0.5588-0.5588-1.2954-0.7874-2.2098-0.635-2.5654-0.3556-4.9276 0.8382-7.0866 0.4318-0.7874 0.8382-1.3208 1.27-1.5748 0.4318-0.3048 0.9652-0.4064 1.651-0.3302 0.7366 0.0508 1.4732 0.2286 2.1844 0.5334 0.7112 0.2794 1.3462 0.6858 1.9304 1.1684 0.2794 0.254 0.5334 0.4572 0.762 0.6096s0.381 0.2286 0.4318 0.2032c0.076-0.0254 0.1524-0.1016 0.2794-0.3048 0.127-0.1524 0.2286-0.381 0.3556-0.6096 0.3302-0.6858 0.6604-1.143 0.9906-1.3716 0.3302-0.254 0.8128-0.381 1.397-0.3556 0.7366 0.0254 1.3208 0.1524 1.7526 0.3556 0.4318 0.254 0.8382 0.6096 1.1684 1.143 0.381 0.6096 0.6604 1.1684 0.7874 1.651 0.2286 0.7874 0.254 1.9304 0.127 3.4036-0.127 1.524-0.381 2.7432-0.762 3.7084-0.3302 0.9144-0.9144 1.7018-1.7526 2.3876s-1.8288 1.1938-2.9972 1.5748zm-6.096 1.524c0.9906 0.381 2.3368 0.508 4.0386 0.3556s3.2004-0.5334 4.4958-1.143c0.635-0.3048 1.27-0.7874 1.9304-1.4478 0.6604-0.635 1.143-1.2954 1.4478-1.9304 0.7874-1.6002 1.1938-3.3528 1.2446-5.2832 0.076-1.905-0.254-3.556-0.9398-4.9022-0.5842-1.143-1.4478-1.9812-2.5654-2.4892-1.0922-0.508-2.286-0.6096-3.5814-0.3302l-0.5842 0.1524-0.127-1.27c-0.076-0.7366-0.2286-1.27-0.4064-1.6002s-0.4064-0.4826-0.6858-0.4572c-0.2032 0.0254-0.3302 0.127-0.3556 0.381-0.025 0.2032-0.025 0.9398 0 2.159 0.051 1.651 0.025 2.4892-0.1016 2.4638-0.127 0-0.5588-0.1778-1.2954-0.5334-0.7874-0.381-1.5748-0.6858-2.3622-0.889-0.7874-0.1778-1.4478-0.2286-1.9812-0.1524-0.7874 0.127-1.4986 0.5842-2.1844 1.4224-0.6604 0.8128-1.1684 1.8542-1.524 3.0988-0.3302 1.2446-0.4572 2.54-0.381 3.8354 0.076 1.2954 0.3048 2.4384 0.7366 3.4544s1.1176 2.0066 2.0066 2.9972c0.5334 0.5588 0.9906 0.9652 1.3716 1.2192s0.9906 0.5588 1.8034 0.889z" stroke-width=".26458"/>
  </g>
 </g>
</svg>
