<svg width="27.502mm" height="31.312mm" version="1.1" viewBox="0 0 27.502 31.312" xmlns="http://www.w3.org/2000/svg">
 <g transform="translate(1235.3 -50.718)">
  <g stroke-width=".26458" style="font-feature-settings:normal;font-variant-caps:normal;font-variant-ligatures:normal;font-variant-numeric:normal" aria-label="">
   <path d="m-1220.1 70.768c-0.381 0.4064-0.6096 0.6096-0.6858 0.6096-0.1016 0-0.4572-0.381-1.1176-1.1684-0.6604-0.7874-1.8034-1.9558-3.429-3.5306l-2.4638-2.3622 1.8542-1.8542 1.8542-1.8288 5.7404-0.1016 0.5334 0.7112c0.3302 0.4318 0.7874 0.9906 1.397 1.651 0.254 0.2794 0.4572 0.5334 0.635 0.7874 0.1524 0.254 0.254 0.4318 0.254 0.508 0 0.2794-0.5842 1.2192-1.7018 2.8702-1.143 1.651-2.1082 2.8702-2.8702 3.7084zm-1.2192 2.54c0.254 0.3302 0.4572 0.508 0.6604 0.4826s0.4318-0.2032 0.6858-0.5588c0.254-0.4064 1.3462-1.8542 3.2258-4.3434 1.8796-2.4892 2.8956-3.8862 3.0988-4.1656 0.127-0.2032 0.127-0.4064 0-0.635-0.1524-0.2032-0.635-0.7366-1.4732-1.6002-0.508-0.508-0.9398-1.016-1.3462-1.4986-0.4064-0.508-0.6604-0.889-0.762-1.1176l-0.3556-0.8128-7.1628 0.1016-0.6858 0.889c-0.2032 0.254-0.5334 0.6096-0.9906 1.0414-0.4826 0.4572-0.9398 0.8636-1.397 1.2446-0.381 0.3048-0.6604 0.5334-0.8382 0.6858-0.2032 0.1778-0.3556 0.3556-0.508 0.5588-0.1524 0.1778-0.254 0.3302-0.254 0.4318s0.025 0.2286 0.1016 0.4318c0.076 0.1524 0.1778 0.3302 0.3302 0.4572 0.1524 0.1524 0.3556 0.3556 0.6604 0.635 1.8288 1.7272 3.048 2.921 3.683 3.5814 0.635 0.6858 1.2192 1.3716 1.7526 2.0828 0.762 1.0414 1.2954 1.7526 1.5748 2.1082z" stroke-width=".26458"/>
  </g>
 </g>
</svg>
