<svg width="27.502mm" height="31.312mm" version="1.1" viewBox="0 0 27.502 31.312" xmlns="http://www.w3.org/2000/svg">
 <g transform="translate(1235.3 -50.718)">
  <g stroke-width=".26458" style="font-feature-settings:normal;font-variant-caps:normal;font-variant-ligatures:normal;font-variant-numeric:normal" aria-label="">
   <path d="m-1221.4 74.832c-0.635 0.3048-1.2954 0.508-1.9558 0.5842-0.7112 0.0762-1.2192 0.0508-1.5494-0.127-0.3048-0.1778-0.5588-0.5842-0.7874-1.2954-0.2032-0.6604-0.4064-1.1938-0.6096-1.5748-0.127-0.3048-0.4826-0.7366-1.0414-1.27-0.5588-0.5588-1.143-1.0668-1.778-1.5494-0.8382-0.635-1.2446-1.3716-1.2446-2.2098 0-0.3556 0.127-0.6858 0.4064-0.9652 0.254-0.3048 0.762-0.7112 1.4986-1.1938 0.2286-0.1778 0.508-0.4064 0.8382-0.6858s0.5842-0.5588 0.8128-0.8128c0.3048-0.3302 0.508-0.6096 0.6096-0.8636 0.076-0.2032 0.1016-0.4826 0.1016-0.762-0.051-0.3048-0.1524-0.7874-0.3302-1.4224-0.3048-1.0922-0.127-1.8034 0.5334-2.1336 0.3302-0.1778 1.0668-0.3556 2.159-0.5842 0.7112-0.1524 1.2192-0.2286 1.5494-0.2286 0.3048-0.0254 0.6604 0.0254 1.0414 0.127 0.6096 0.1524 1.397 0.1778 2.3876 0.1016 0.8128-0.0762 1.4478-0.0508 1.905 0.0762 0.4318 0.127 0.9144 0.4064 1.4478 0.8382 0.254 0.2286 0.4318 0.4064 0.4826 0.5842 0.1016 0.1524 0.127 0.4064 0.127 0.7366-0.025 0.5334-0.1524 1.1684-0.4064 1.905-0.2032 0.6096-0.3302 1.2954-0.381 2.0828-0.025 0.7874 0.025 1.3716 0.2032 1.8034 0.127 0.3302 0.6096 1.1176 1.4478 2.3368 0.5842 0.8636 0.9144 1.4224 1.0414 1.6764 0.1016 0.254 0.127 0.5588 0.076 0.9398-0.076 0.635-0.2032 1.0668-0.381 1.27-0.1524 0.1778-0.4318 0.2794-0.8382 0.2794-0.4826 0-1.016-0.1016-1.6256-0.2794-0.635-0.1778-1.0922-0.2794-1.4478-0.3048-0.3048 0-0.635 0.0762-0.9144 0.254-0.3048 0.1778-0.6858 0.4826-1.143 0.9652-0.3302 0.3302-0.7112 0.6604-1.143 0.9906s-0.7874 0.5588-1.0922 0.7112zm-3.6576 2.159c0.9144 0.2794 2.0066 0.2032 3.2766-0.2286 1.2954-0.4318 2.4638-1.143 3.556-2.1082 0.7874-0.6858 1.27-1.016 1.3716-1.016 0.1524-0.0254 0.635 0.1016 1.524 0.381 1.397 0.4318 2.3876 0.4064 2.9718-0.127 0.2286-0.2286 0.4572-0.635 0.635-1.2192 0.2032-0.5842 0.3048-1.1684 0.3048-1.7018 0-0.5588-0.1016-1.0668-0.2794-1.5494s-0.5588-1.0922-1.0922-1.8288c-0.3048-0.4318-0.5334-0.7874-0.7112-1.016-0.1524-0.2286-0.3048-0.508-0.4318-0.7874s-0.2286-0.508-0.2286-0.6858c-0.051-0.1778-0.051-0.4064-0.025-0.6858 0.025-0.2794 0.051-0.5588 0.127-0.8128s0.1778-0.6096 0.3048-1.0414c0.2794-0.9398 0.4064-1.6256 0.4318-2.0574 0.025-0.4318-0.1016-0.9144-0.3302-1.4224s-0.5588-0.9398-0.9652-1.3208c-0.381-0.381-0.9144-0.7366-1.5748-1.0668-0.5334-0.2794-0.9398-0.4318-1.1938-0.4572s-0.7366-0.0254-1.4732 0.0254c-0.635 0.0508-1.1176 0.0508-1.4478 0.0254s-0.7366-0.127-1.1938-0.2794c-1.1176-0.381-2.1844-0.3048-3.2258 0.254-0.3302 0.1778-0.8382 0.4064-1.5494 0.7366-0.2794 0.127-0.5588 0.2794-0.8128 0.4318-0.254 0.2032-0.4064 0.3302-0.4572 0.4318-0.2032 0.3556-0.3048 0.8382-0.3302 1.4478-0.025 0.635 0.051 1.1684 0.2032 1.651 0.2032 0.5842 0.254 0.9906 0.127 1.2192-0.051 0.1016-0.254 0.3048-0.635 0.6096s-0.7874 0.635-1.2446 0.9652c-0.5588 0.4318-0.9652 0.7366-1.2446 0.9398-0.254 0.2286-0.4572 0.4572-0.6604 0.7112-0.1524 0.2286-0.2794 0.4572-0.3048 0.6604-0.025 0.1778-0.051 0.4572-0.051 0.8382 0 1.0414 0.2032 1.905 0.6096 2.5908 0.381 0.6858 1.0922 1.3716 2.0828 2.0574 0.5334 0.3556 0.9144 0.635 1.1176 0.8636 0.254 0.2032 0.4318 0.4572 0.5588 0.7366s0.3048 0.762 0.508 1.4224c0.2286 0.7366 0.4826 1.2954 0.762 1.6764s0.6096 0.6096 0.9906 0.7366z" stroke-width=".26458"/>
  </g>
 </g>
</svg>
