<svg width="27.502mm" height="31.312mm" version="1.1" viewBox="0 0 27.502 31.312" xmlns="http://www.w3.org/2000/svg">
 <g transform="translate(1235.3 -50.718)">
  <g stroke-width=".26458" style="font-feature-settings:normal;font-variant-caps:normal;font-variant-ligatures:normal;font-variant-numeric:normal" aria-label="">
   <path d="m-1218.5 76.636c0.3302 0.254 0.6604 0.3556 0.9906 0.254 0.3302-0.0508 0.8382-0.3302 1.4986-0.7874 1.016-0.6858 1.7018-1.4224 2.1082-2.2352 0.381-0.8128 0.5588-1.8034 0.4826-2.9718-0.051-0.762-0.2286-1.4732-0.5334-2.0828-0.3048-0.6604-0.8382-1.4224-1.6002-2.3622-0.7112-0.889-1.1938-1.5748-1.3716-2.0066-0.2032-0.4318-0.3048-1.0668-0.3048-1.8796 0-1.0922 0.254-2.1082 0.7366-3.048 0.4826-0.9652 1.0922-1.6256 1.8034-2.0066 0.8382-0.4318 0.9906-0.9398 0.4318-1.524-0.4318-0.508-0.9906-0.508-1.6764 0.0254-0.6858 0.508-1.3716 1.4224-2.032 2.7178-0.3556 0.7366-0.5842 1.2446-0.6604 1.5494-0.051 0.3302-0.1016 0.9398-0.1016 1.8288 0 0.8636 0.025 1.4478 0.1016 1.778 0.051 0.3302 0.2286 0.762 0.4826 1.3208 0.1778 0.3302 0.4064 0.7112 0.6858 1.143s0.5334 0.8128 0.762 1.0922c0.6096 0.7112 1.016 1.2954 1.2192 1.778 0.2032 0.4572 0.3048 1.016 0.3048 1.7018 0.025 0.4826 0 0.8382-0.076 1.0922-0.051 0.2286-0.2032 0.5334-0.4318 0.8636-0.3556 0.5588-0.8128 1.0668-1.3462 1.5748-0.508 0.4572-0.9398 0.762-1.2954 0.8382-0.381 0.1016-0.6096 0.2794-0.635 0.5334-0.051 0.2794 0.1016 0.5334 0.4572 0.8128zm-9.4488 0.3302c0.1524 0.1778 0.3556 0.254 0.635 0.2286 0.3048-0.0508 0.5588-0.2032 0.762-0.4318 0.4064-0.4318 0.8128-1.143 1.2192-2.159 0.381-1.0414 0.635-1.9304 0.6858-2.667 0.127-1.2192 0.076-2.286-0.1524-3.2258-0.2286-0.9398-0.6858-1.9304-1.397-3.0226-0.6604-1.0414-1.1176-1.8796-1.397-2.5146-0.254-0.6604-0.4064-1.27-0.4064-1.8034 0-0.7874 0.2286-1.397 0.7112-1.8034 0.4572-0.4572 1.27-0.8128 2.413-1.1176 0.508-0.127 0.7874-0.2794 0.889-0.4064 0.1016-0.1524 0.025-0.3302-0.254-0.5588-0.4572-0.381-1.1938-0.4318-2.1844-0.2032s-1.778 0.6604-2.3622 1.2954c-0.3556 0.3556-0.5842 0.8382-0.7112 1.4224-0.1016 0.5842-0.1016 1.2192 0.025 1.8542 0.1016 0.5334 0.3048 1.0922 0.5588 1.7018 0.2794 0.6096 0.8128 1.6764 1.6256 3.2004 0.4826 0.889 0.762 1.4732 0.8382 1.778 0.1016 0.3048 0.127 0.8382 0.127 1.6002 0 1.8034-0.4826 3.429-1.4478 4.8514-0.3048 0.4826-0.4572 0.8382-0.4826 1.1176-0.025 0.2794 0.076 0.5588 0.3048 0.8636z" stroke-width=".26458"/>
  </g>
 </g>
</svg>
