<svg width="27.502mm" height="31.312mm" version="1.1" viewBox="0 0 27.502 31.312" xmlns="http://www.w3.org/2000/svg">
 <g transform="translate(1235.3 -50.718)">
  <g stroke-width=".26458" style="font-feature-settings:normal;font-variant-caps:normal;font-variant-ligatures:normal;font-variant-numeric:normal" aria-label="">
   <path d="m-1221.2 66.679c-2.286 0.2286-3.5052 0.254-3.683 0.1016-0.051-0.0762 0.1778-0.8382 0.6858-2.286 0.5334-1.4732 0.9144-2.6924 1.1176-3.683 0.1016-0.4318 0.2032-0.762 0.3048-1.0414 0.076-0.254 0.1778-0.381 0.2286-0.3556 0.1778 0.0508 0.5588 0.635 1.1176 1.778 0.5842 1.1176 1.1176 2.2352 1.5748 3.3782 0.4826 1.143 0.6858 1.7526 0.5842 1.8288-0.051 0.0762-0.6858 0.1524-1.9304 0.2794zm0.8382 8.255c-2.3368 0-4.0386 0.0254-5.1562 0.1016-0.9144 0.0508-1.5748 0.0254-1.9558-0.0762-0.3556-0.0762-0.5588-0.2794-0.5588-0.5842 0-0.254 0.2286-0.9398 0.635-2.0066 0.4318-1.1176 0.8382-2.032 1.1938-2.794l0.5588-1.143 3.3274-0.2032c2.2352-0.1524 3.4544-0.1778 3.6576-0.0508 0.2032 0.1016 0.4572 0.5588 0.8128 1.397 0.3302 0.8382 0.7112 1.905 1.0922 3.2004 0.2286 0.7874 0.3556 1.27 0.381 1.4732 0.025 0.2032-0.025 0.3556-0.1778 0.4572-0.2032 0.1524-1.4732 0.2286-3.81 0.2286zm-7.0104 1.7526v-0.0254c0.254 0.0762 0.5842 0.0762 1.016 0.0254 0.4572-0.0762 2.54-0.127 6.2484-0.2032l5.5626-0.0762 0.127-0.4318c0.025-0.127 0.025-0.2794-0.025-0.508-0.025-0.2032-0.1016-0.508-0.254-0.9398-0.127-0.4318-0.3048-0.9398-0.5334-1.5494-0.2286-0.635-0.5334-1.4478-0.9144-2.4384-0.1778-0.508-0.3302-0.9652-0.4318-1.3462s-0.127-0.6096-0.1016-0.635c0.127-0.1016 0.5588-0.0762 1.2954 0.1016l0.381 0.0762c0.9652 0.2286 1.5494 0.3302 1.7272 0.3302 0.2032 0 0.3556-0.1016 0.4572-0.3048 0.025-0.0254 0.051-0.0508 0.051-0.0762 0.1524-0.1778 0.2032-0.3302 0.2032-0.4826 0-0.1016-0.025-0.2794-0.127-0.4826v-0.0254c-0.1016-0.254-0.2794-0.4064-0.508-0.4826s-0.9652-0.2032-2.2098-0.4064c-0.051-0.0254-0.1016-0.0254-0.1524-0.0254-0.508-0.0762-0.9652-0.1778-1.397-0.2794-0.4064-0.1016-0.6604-0.1778-0.7112-0.254-0.1524-0.1524-0.4064-0.7112-0.7874-1.6764-0.5334-1.3462-1.2954-2.9718-2.286-4.8006-0.9906-1.8796-1.6764-2.9718-2.032-3.302-0.254-0.2286-0.4572-0.2794-0.635-0.1016-0.1524 0.1778-0.3048 0.5588-0.4572 1.1684-0.4064 1.905-0.7112 3.2512-0.9144 4.0386-0.2286 0.7874-0.4826 1.651-0.8382 2.5654-0.4826 1.3716-0.7874 2.1336-0.9398 2.286-0.127 0.1524-0.7874 0.254-2.0066 0.2794-0.889 0.0254-1.4224 0.0762-1.6002 0.127-0.1524 0.0254-0.254 0.1778-0.2794 0.4064-0.025 0.4064 0.076 0.7112 0.3048 0.889 0.254 0.1778 0.7112 0.3048 1.3716 0.381l1.2446 0.1524-0.9906 2.3368c-0.5334 1.2446-0.8636 2.1844-0.9652 2.8194-0.127 0.635-0.051 1.1938 0.2032 1.6764 0.1524 0.2286 0.381 0.4572 0.7366 0.6858 0.3302 0.2286 0.7366 0.381 1.1684 0.508z" stroke-width=".26458"/>
  </g>
 </g>
</svg>
