<svg width="27.502mm" height="31.312mm" version="1.1" viewBox="0 0 27.502 31.312" xmlns="http://www.w3.org/2000/svg">
 <g transform="translate(1235.3 -50.718)">
  <g stroke-width=".26458" style="font-feature-settings:normal;font-variant-caps:normal;font-variant-ligatures:normal;font-variant-numeric:normal" aria-label="">
   <path d="m-1221.3 63.707c-0.1778 0.1016-0.381 0.1778-0.6096 0.254s-0.4318 0.1016-0.6096 0.1016c-0.4064 0-0.7366-0.2032-0.9906-0.5842-0.2286-0.381-0.3556-0.9398-0.3556-1.6256 0-0.4064 0.051-0.7112 0.1016-0.9144 0.1016-0.1778 0.254-0.4318 0.5334-0.7366 0.3048-0.3302 0.5334-0.5334 0.6858-0.5842 0.127-0.0254 0.4572-0.0254 0.9906 0.0508 0.4826 0.0508 0.7874 0.1016 0.9398 0.2032 0.1524 0.0508 0.3048 0.2286 0.4318 0.4826 0.2794 0.5588 0.3302 1.1684 0.1016 1.8288s-0.635 1.1684-1.2192 1.524zm-1.524 1.905c0.635 0.1778 1.3462 0.0508 2.1336-0.3556 0.7874-0.381 1.3462-0.9144 1.6764-1.6002 0.2794-0.5588 0.4318-1.1938 0.4318-1.8542 0.025-0.7112-0.1016-1.3208-0.3556-1.905-0.2286-0.5842-0.5588-0.9906-0.9906-1.2446-0.381-0.2286-0.889-0.4064-1.5748-0.5588-0.635-0.1778-1.1176-0.2032-1.4986-0.0508-0.381 0.1016-0.8128 0.4318-1.3208 0.9652-0.381 0.381-0.635 0.8128-0.8128 1.27-0.1524 0.4826-0.2286 1.0922-0.2286 1.8288s0.254 1.4478 0.7874 2.1844 1.1176 1.1684 1.7526 1.3208zm6.985 7.366c-0.2794 0.1778-0.5588 0.2794-0.8382 0.3048-0.2794 0-0.5334-0.0762-0.7874-0.2032-0.2032-0.1524-0.4064-0.381-0.5588-0.6604s-0.2286-0.6096-0.2286-0.9652c0-0.4826 0.127-0.889 0.4064-1.2192 0.2794-0.3302 0.635-0.5588 1.0668-0.635 0.2794-0.0508 0.4572-0.0508 0.5334 0.0254 0.1016 0.0762 0.254 0.2794 0.4318 0.635 0.2794 0.508 0.4064 1.0414 0.381 1.6002 0 0.5334-0.127 0.9144-0.4064 1.1176zm-2.1336 1.4478c0.381 0.2286 0.8382 0.3556 1.4224 0.3302 0.6858 0 1.2954-0.2286 1.778-0.6604 0.508-0.4572 0.8128-1.0668 0.9398-1.8034 0.076-0.4826-0.051-1.1176-0.4318-1.905-0.381-0.7874-0.8382-1.4224-1.3716-1.905-0.3556-0.3048-0.6096-0.4826-0.762-0.5588-0.1778-0.0762-0.4318-0.0762-0.762-0.0508-0.635 0.1016-1.1938 0.381-1.6256 0.8128-0.4572 0.4318-0.7874 1.0414-0.9652 1.7526-0.1778 0.762-0.1016 1.4732 0.2032 2.2352 0.3556 0.7112 0.8636 1.3208 1.5748 1.7526zm-6.604-1.651c-0.1524 0.127-0.3556 0.254-0.5842 0.381s-0.4572 0.2032-0.635 0.2286c-0.2794 0.0508-0.4826 0.0508-0.635 0-0.1524-0.0762-0.3556-0.2032-0.6096-0.4318-0.381-0.3302-0.6096-0.7366-0.6858-1.1684-0.1016-0.4318-0.025-0.8128 0.2286-1.1176 0.1524-0.1778 0.3302-0.3048 0.5588-0.3556s0.6858-0.0762 1.3462-0.1016c0.7112-0.0254 1.143-0.0254 1.3208 0.0254 0.2032 0 0.3556 0.1016 0.4318 0.2794 0.127 0.254 0.127 0.6096-0.025 1.0922-0.127 0.4572-0.381 0.8382-0.7112 1.1684zm-2.5654 1.8288c0.3302 0.2032 0.7112 0.3048 1.1176 0.3302s0.7874-0.0508 1.1938-0.1778c0.3556-0.1524 0.7366-0.3556 1.0668-0.6604 0.3556-0.254 0.6604-0.5842 0.9144-0.9398 0.2286-0.3556 0.4064-0.7366 0.508-1.1938 0.1016-0.4064 0.127-0.8382 0.051-1.27-0.025-0.1778-0.127-0.4064-0.2794-0.6858-0.1524-0.2794-0.3048-0.508-0.4826-0.6858l-0.6096-0.6604-1.9304-0.0254c-0.8128-0.0254-1.3716 0-1.6764 0.0254-0.3048 0.0508-0.5842 0.1524-0.8382 0.3048-0.3302 0.1778-0.6096 0.4826-0.8382 0.9144-0.2286 0.4318-0.3556 0.8128-0.3556 1.1684 0 0.635 0.2032 1.2954 0.6096 1.9812 0.4064 0.6604 0.9144 1.1938 1.5494 1.5748z" stroke-width=".26458"/>
  </g>
 </g>
</svg>
