<svg width="27.502mm" height="31.312mm" version="1.1" viewBox="0 0 27.502 31.312" xmlns="http://www.w3.org/2000/svg">
 <g transform="translate(1235.3 -50.718)">
  <g stroke-width=".26458" style="font-feature-settings:normal;font-variant-caps:normal;font-variant-ligatures:normal;font-variant-numeric:normal" aria-label="">
   <path d="m-1223.5 68.177c0.1524 0.1524 0.2794 0.2032 0.4064 0.1524 0.1778-0.0508 0.381-0.3048 0.6604-0.7366 0.254-0.4572 0.4826-0.9652 0.6604-1.524 0.2032-0.6096 0.2794-1.1176 0.2032-1.4732-0.076-0.4064-0.2794-0.6096-0.6096-0.6604-0.2794-0.0508-0.4318-0.0508-0.4318 0 0 0.0254-0.1778 0.5842-0.5588 1.6256-0.3048 0.889-0.4826 1.4986-0.508 1.8288-0.051 0.3556 0 0.6096 0.1778 0.7874zm-0.8128 7.7978c0.2032 0.2286 0.4064 0.3048 0.6096 0.2286s0.508-0.381 0.9398-0.8636c0.9652-1.0922 1.8796-2.5146 2.7686-4.2418 0.889-1.7272 1.6002-3.5306 2.1336-5.4102 0.254-0.9144 0.4064-1.6256 0.4826-2.1082 0.076-0.508 0.1016-1.2954 0.1016-2.3368 0-1.143-0.025-1.8542-0.051-2.1336-0.051-0.2794-0.2032-0.6096-0.4572-0.9906-0.381-0.5842-0.7366-0.9652-1.0922-1.143-0.381-0.2032-0.889-0.3048-1.5748-0.3048-0.8636 0-1.5748 0.1524-2.159 0.4064-0.5842 0.3048-1.2446 0.8128-1.9812 1.5748-0.4826 0.5334-0.7874 0.9144-0.9398 1.1684-0.1778 0.2286-0.254 0.4572-0.2286 0.6604 0.025 0.2794 0.1016 0.4572 0.2286 0.508 0.2794 0.127 0.889-0.2794 1.8542-1.27 0.6858-0.7112 1.2192-1.1684 1.6002-1.3716 0.381-0.1778 0.9144-0.2794 1.6256-0.2794 0.7874 0 1.3462 0.2032 1.6764 0.6096s0.4826 1.0922 0.4826 2.0574c0 1.4224-0.381 3.2004-1.143 5.2832-0.762 2.1336-1.7272 4.0894-2.8702 5.9182-1.143 1.8034-1.778 2.8702-1.9558 3.2258s-0.1778 0.635-0.051 0.8128z" stroke-width=".26458"/>
  </g>
 </g>
</svg>
