<svg width="27.502mm" height="31.312mm" version="1.1" viewBox="0 0 27.502 31.312" xmlns="http://www.w3.org/2000/svg">
 <g transform="translate(1235.3 -50.718)">
  <g stroke-width=".26458" style="font-feature-settings:normal;font-variant-caps:normal;font-variant-ligatures:normal;font-variant-numeric:normal" aria-label="">
   <path d="m-1224.2 78.261c0.025 0.1016 0.076 0.1778 0.127 0.2032 0.076 0.0508 0.1524 0.0508 0.2286 0.0254 0.076-0.0254 0.1778-0.1016 0.3048-0.2286 0.127-0.1016 0.2794-0.254 0.4572-0.4318 0.635-0.635 1.2446-1.6002 1.7526-2.8702 0.5588-1.27 1.0922-2.9718 1.651-5.1308 0.5588-2.1844 0.889-4.191 0.9398-5.9944 0.1016-1.8288-0.076-3.3274-0.4572-4.4958-0.2794-0.8382-0.6858-1.6256-1.1684-2.413-0.508-0.7874-1.0414-1.397-1.6002-1.8796s-1.0414-0.7112-1.4478-0.7112c-0.2032 0-0.4064 0.1016-0.5842 0.3048-0.1778 0.2286-0.2794 0.4572-0.2794 0.7112 0 0.2794 0.1778 0.508 0.5334 0.6604 0.6604 0.2794 1.3462 0.9144 2.0574 1.9812 0.7112 1.016 1.1938 2.0574 1.4224 3.0988 0.2794 1.1938 0.3556 2.4892 0.254 3.9116-0.127 1.397-0.4572 3.2258-0.9906 5.4356-0.635 2.6416-1.4732 4.7244-2.4638 6.2738-0.2286 0.3556-0.4064 0.6858-0.5588 0.9906-0.127 0.3048-0.2032 0.4826-0.1778 0.5588z" stroke-width=".26458"/>
  </g>
 </g>
</svg>
