<svg width="27.502mm" height="31.312mm" version="1.1" viewBox="0 0 27.502 31.312" xmlns="http://www.w3.org/2000/svg">
 <g transform="translate(1235.3 -50.718)">
  <g stroke-width=".26458" style="font-feature-settings:normal;font-variant-caps:normal;font-variant-ligatures:normal;font-variant-numeric:normal" aria-label="">
   <path d="m-1214 68.482c-0.4318 0.2794-0.889 0.4318-1.3462 0.4318-0.4318 0.0508-0.8382-0.0508-1.2192-0.254-0.3302-0.1778-0.5588-0.4064-0.7112-0.6604-0.1016-0.254-0.1778-0.635-0.1778-1.1176 0-0.4572 0.127-0.9398 0.381-1.4224 0.2286-0.4826 0.5334-0.8636 0.8636-1.1176 0.3556-0.254 0.635-0.3048 0.8636-0.127 0.127 0.1016 0.5588 0.2286 1.2446 0.4064s1.0922 0.3302 1.27 0.4826 0.254 0.4572 0.254 0.889c-0.025 1.1176-0.4826 1.9558-1.4224 2.4892zm-2.4638 1.778c0.4826 0.127 0.9144 0.1778 1.2192 0.1524 0.3556-0.0254 0.762-0.1778 1.2446-0.4064 0.889-0.4064 1.5748-0.9652 2.032-1.7018s0.6858-1.5748 0.6858-2.5654c0-0.6096-0.1524-1.0922-0.4826-1.4732s-0.8382-0.6604-1.5494-0.8636c-0.2794-0.0762-0.5588-0.2032-0.8128-0.3302-0.2794-0.127-0.4572-0.254-0.5334-0.3556-0.1524-0.2032-0.2794-0.3048-0.381-0.3048-0.127 0-0.381 0.0762-0.7874 0.2286-0.4826 0.1778-0.9652 0.508-1.4478 0.9398-0.4572 0.4572-0.8128 0.9398-1.0414 1.4224-0.1016 0.2794-0.2286 0.4572-0.381 0.6096-0.127 0.1016-0.3048 0.2032-0.5334 0.254-0.381 0.1016-2.5908 0.1778-6.5786 0.254-2.921 0.0508-4.6482 0.1016-5.1816 0.1524-0.5334 0.0254-0.8128 0.1524-0.8128 0.3302 0 0.2286 0.051 0.381 0.1524 0.4826 0.127 0.1016 0.4572 0.1778 1.016 0.254 0.5334 0.0762 1.2192 0.1016 2.032 0.1524 0.8382 0 2.1082 0.0254 3.81 0.0254l5.9944 0.0254 0.3048 0.7112c0.2032 0.4572 0.508 0.889 0.889 1.27s0.762 0.635 1.143 0.7366z" stroke-width=".26458"/>
  </g>
 </g>
</svg>
