<svg width="27.502mm" height="31.312mm" version="1.1" viewBox="0 0 27.502 31.312" xmlns="http://www.w3.org/2000/svg">
 <g transform="translate(1235.3 -50.718)">
  <g stroke-width=".26458" style="font-feature-settings:normal;font-variant-caps:normal;font-variant-ligatures:normal;font-variant-numeric:normal" aria-label="">
   <path d="m-1217.5 61.04c-0.254 0.1524-0.6096 0.254-1.0668 0.2794-0.4318 0.0254-0.7366 0-0.9144-0.0762-0.1524-0.0762-0.2286-0.1778-0.2032-0.3048 0-0.1016 0.127-0.3556 0.3302-0.7874 0.3556-0.6604 0.8128-1.1938 1.3716-1.651 0.5842-0.4064 1.0414-0.5334 1.3462-0.3302 0.1524 0.0762 0.2032 0.2794 0.2286 0.5334 0 0.3048-0.051 0.5842-0.127 0.889-0.1016 0.3048-0.2286 0.5842-0.4064 0.889-0.1778 0.254-0.3556 0.4572-0.5588 0.5588zm-5.6134 0.0508c-0.254 0.2794-0.7112 0.4064-1.3716 0.4064-0.6604-0.0508-1.143-0.2032-1.4478-0.508-0.2286-0.2286-0.381-0.508-0.4318-0.8382-0.051-0.3302 0.025-0.5588 0.2032-0.7112 0.2286-0.1778 0.5842-0.3048 1.0668-0.4318s0.8382-0.1524 1.0668-0.1016c0.3302 0.0762 0.6096 0.381 0.8636 0.9652 0.1778 0.4064 0.254 0.6604 0.2794 0.7874 0 0.127-0.076 0.254-0.2286 0.4318zm6.604 12.979 0.1016 0.8636h-4.6482c-3.0988-0.0254-4.8006-0.0762-5.1054-0.1778l-0.4318-0.1778 0.3556-0.5334c0.2794-0.3556 0.508-0.6096 0.7366-0.8128 0.2032-0.1524 0.7874-0.8636 1.7018-2.1336 0.9398-1.2192 1.4986-1.9558 1.651-2.1844 0.3048-0.381 0.7366-0.4318 1.3208-0.2032s1.27 0.7366 2.0574 1.524c0.6604 0.635 1.1684 1.27 1.5494 1.9304 0.4064 0.6604 0.635 1.2954 0.7112 1.905zm-11.125 1.4986c0.254 0.127 0.7874 0.2032 1.5748 0.254 0.8128 0.0254 2.4892 0.0508 5.0546 0.0508 2.9972 0.0254 4.7498 0 5.2832-0.0254s0.8382-0.1524 0.889-0.3556c0.1016-0.254 0-0.635-0.254-1.1684s-0.508-1.0668-0.762-1.6256c-0.254-0.6096-0.7112-1.2954-1.3208-2.0574-0.635-0.7366-1.27-1.397-1.9812-1.9812-0.3048-0.2794-0.6096-0.5588-0.8636-0.8128-0.2794-0.2794-0.4064-0.4572-0.4572-0.5334-0.051-0.2286-0.076-0.9398-0.127-2.159 0-0.254-0.025-0.4572-0.025-0.6096s0-0.3048 0.025-0.508c0-0.1524 0.025-0.3048 0.025-0.4064 0.025-0.1016 0.051-0.2032 0.076-0.3048 0.051-0.127 0.076-0.2032 0.127-0.254 0.025-0.0254 0.1016-0.0762 0.2032-0.1524 0.076-0.0762 0.1778-0.1016 0.254-0.127 0.076-0.0254 0.1778-0.0508 0.3302-0.0762 0.1524-0.0508 0.3048-0.0762 0.4572-0.1016 0.127-0.0254 0.3302-0.0254 0.5334-0.0508 0.6096-0.0762 1.0414-0.1524 1.2954-0.2286s0.508-0.2286 0.7112-0.4572c0.762-0.7112 1.2192-1.524 1.4224-2.4384 0.076-0.3302 0.1016-0.5842 0.076-0.762-0.025-0.1778-0.1524-0.4064-0.3556-0.6858-0.254-0.381-0.5334-0.6604-0.7874-0.8128s-0.5588-0.2286-0.9652-0.2286c-0.5842 0-1.1684 0.2286-1.7272 0.6858-0.5588 0.4826-1.0668 1.1684-1.5494 2.0828-0.1524 0.3048-0.3048 0.5588-0.4572 0.762s-0.254 0.3048-0.3048 0.3048c-0.051-0.0254-0.1524-0.1524-0.3302-0.4064s-0.381-0.5588-0.6096-0.9144c-0.2794-0.4826-0.5334-0.8382-0.762-1.0922s-0.508-0.4318-0.8128-0.5588-0.6096-0.1524-0.9652-0.127c-0.3302 0.0254-0.7366 0.127-1.2446 0.3048-0.6096 0.2032-1.0668 0.4572-1.3462 0.7112-0.254 0.3048-0.4064 0.635-0.4064 1.0668 0 0.4826 0.1778 0.9144 0.4826 1.3716 0.3302 0.4064 0.7874 0.7874 1.397 1.1176 0.5334 0.2794 0.9652 0.4064 1.3462 0.4572 0.3556 0 0.9398-0.0762 1.7018-0.254 0.2286-0.0508 0.381-0.0508 0.4572 0 0.1016 0.0254 0.1778 0.1524 0.254 0.381 0.127 0.3302 0.1778 0.9652 0.1778 1.8796 0 0.635-0.025 1.0922-0.1016 1.3716-0.076 0.2794-0.3302 0.762-0.762 1.4732-0.5842 0.9652-1.1938 1.8542-1.8034 2.667-0.6096 0.7874-1.3716 1.7272-2.3368 2.7686-1.016 1.143-1.4986 1.8288-1.4478 2.0066 0.025 0.0762 0.1016 0.1524 0.254 0.254 0.127 0.127 0.3048 0.2286 0.4572 0.3048z" stroke-width=".26458"/>
  </g>
 </g>
</svg>
