<svg width="27.502mm" height="31.312mm" version="1.1" viewBox="0 0 27.502 31.312" xmlns="http://www.w3.org/2000/svg">
 <g transform="translate(1235.3 -50.718)">
  <g stroke-width=".26458" style="font-feature-settings:normal;font-variant-caps:normal;font-variant-ligatures:normal;font-variant-numeric:normal" aria-label="">
   <path d="m-1225.8 62.285c-0.7112 0.1016-1.1938 0.1778-1.4732 0.2032-1.0922 0.127-1.7018 0.1524-1.8034 0.0254-0.1016-0.0762-0.051-0.3048 0.1524-0.6858 0.3048-0.635 0.762-1.2446 1.2954-1.8542 0.5588-0.635 1.0922-1.1176 1.651-1.4732 0.508-0.3302 0.889-0.5588 1.143-0.6096 0.254-0.1016 0.6604-0.127 1.2446-0.127 0.8382 0 1.4224 0.0508 1.7526 0.1778 0.3048 0.127 0.6858 0.4826 1.1684 1.1176s0.889 1.2446 1.1938 1.8796 0.381 1.016 0.254 1.143c-0.1016 0.1016-0.8128 0.1016-2.1082-0.0254-0.8128-0.0762-1.4732-0.0762-2.0574-0.0508-0.5588 0.0254-1.3716 0.127-2.413 0.2794zm3.8608 12.649c-1.016 0.3556-2.1082 0.381-3.2766 0.0762-1.143-0.3302-2.0574-0.889-2.7178-1.7018-0.7366-0.889-1.2954-1.8796-1.6764-3.0226-0.381-1.1176-0.5588-2.286-0.5588-3.5306 0-0.7366 0.025-1.2954 0.076-1.651 0.076-0.3556 0.1524-0.6096 0.3048-0.762 0.127-0.127 0.3302-0.2032 0.6096-0.2032 0.4064 0 1.3716-0.127 2.8702-0.381 1.4732-0.2286 2.7686-0.3556 3.8354-0.3556 0.8636 0 1.651 0.0508 2.413 0.127 0.7366 0.1016 1.1684 0.2032 1.27 0.3048 0.1016 0.127 0.254 0.7112 0.381 1.778 0.1524 1.0668 0.2286 1.9812 0.2286 2.7686 0 1.651-0.3048 3.0734-0.9652 4.191-0.635 1.1684-1.5748 1.9304-2.794 2.3622zm-4.1148 1.2192c0.6096 0.254 1.397 0.381 2.3622 0.381 0.9398-0.0254 1.7526-0.1524 2.413-0.4064 0.5842-0.2286 1.1684-0.5842 1.7526-1.1176 0.5588-0.508 1.0668-1.1176 1.4986-1.8288 0.4318-0.6858 0.7366-1.397 0.9398-2.1336 0.1016-0.4826 0.1778-0.9398 0.2032-1.4224 0.025-0.4572 0.025-1.1176-0.025-2.0066-0.1016-1.4986-0.2032-2.4892-0.254-2.9464l-0.1016-0.7112h2.54c1.016 0 1.7272-0.0254 2.1082-0.0762 0.3556-0.0254 0.6096-0.1016 0.7366-0.2286 0.1778-0.1778 0.2794-0.4318 0.254-0.7366 0-0.3048-0.1016-0.508-0.2794-0.6096-0.1016-0.0508-0.4064-0.0762-0.9398-0.1016s-1.143-0.0254-1.8034 0c-1.6764 0.0762-2.5654 0.0508-2.6924-0.0508-0.127-0.127-0.4572-0.7112-0.9652-1.7526-0.5588-1.0922-1.0414-1.9304-1.4986-2.5146-0.4318-0.5842-0.9144-0.9906-1.397-1.2192-0.508-0.2286-0.9906-0.3556-1.4732-0.381s-1.143 0.0762-1.9812 0.254c-0.7112 0.1778-1.2954 0.381-1.7018 0.635-0.4318 0.2794-0.9906 0.7366-1.7018 1.4224-0.6604 0.635-1.2192 1.3208-1.6764 2.0574-0.4318 0.7366-0.8382 1.651-1.1938 2.7432-0.2794 0.8382-0.4318 1.4224-0.4826 1.8034-0.051 0.381-0.076 1.016-0.025 1.9304 0.1016 2.2098 0.635 4.1148 1.6002 5.6896 0.9398 1.6256 2.2098 2.7178 3.7846 3.3274z" stroke-width=".26458"/>
  </g>
 </g>
</svg>
