<svg width="27.502mm" height="31.312mm" version="1.1" viewBox="0 0 27.502 31.312" xmlns="http://www.w3.org/2000/svg">
 <g transform="translate(1235.3 -50.718)">
  <g stroke-width=".26458" style="font-feature-settings:normal;font-variant-caps:normal;font-variant-ligatures:normal;font-variant-numeric:normal" aria-label="">
   <path d="m-1218.4 70.26c-0.9398 0-2.032 0.0254-3.2766 0.1016-0.8382 0.0762-1.8542 0.0762-3.048-0.0254-1.1938-0.0508-1.9558-0.1524-2.286-0.2794-0.127-0.0254-0.1778-0.9906-0.2032-2.8702-0.025-1.905 0-3.81 0.076-5.6896 0.076-1.9304 0.1778-2.8956 0.3048-2.9718 0.076-0.0508 0.508-0.1016 1.3208-0.127s1.7526-0.0508 2.794-0.0508h1.4986c0.3556 0 0.7366 0.0254 1.1684 0.0508s0.7366 0.0508 0.9652 0.0762 0.4572 0.0762 0.7366 0.1524 0.4572 0.1778 0.5842 0.2286c0.127 0.1016 0.254 0.2032 0.4064 0.381s0.254 0.3302 0.3302 0.4826c0.051 0.1524 0.127 0.3556 0.2286 0.6604 0.076 0.254 0.1524 0.5334 0.2032 0.7874 0.051 0.254 0.1016 0.5842 0.1778 1.016 0.127 0.8382 0.2794 2.3368 0.4318 4.5212 0.127 2.1844 0.1524 3.3782 0.076 3.5814-0.076 0.1778-0.254 0.2032-0.5842 0.1016-0.3302-0.0762-0.9652-0.127-1.905-0.127zm-8.89 5.1054c0.1524 0.2286 0.3302 0.3556 0.5334 0.3556 0.2032 0.0254 0.381-0.1016 0.5334-0.3302 0.127-0.2286 0.051-0.635-0.2032-1.2446-0.254-0.6096-0.4318-1.1684-0.508-1.7018l-0.127-0.7874 1.3716 0.0254c0.9398 0.0254 1.778 0.0508 2.5146 0.127l1.1176 0.127 0.2286 1.7018c0.127 0.8636 0.2794 1.4478 0.4572 1.778 0.1524 0.3048 0.3556 0.4064 0.635 0.3048 0.127-0.0508 0.2286-0.2032 0.254-0.4318 0.025-0.2286 0.025-0.762 0-1.6002l-0.076-1.9304 1.1176-0.1524c0.6096-0.0762 1.27-0.0762 1.9558 0.0254s1.1176 0.254 1.2954 0.4572c0.127 0.1778 0.254 0.7366 0.381 1.7272 0.076 0.4318 0.127 0.7874 0.2032 1.0922 0.2286 0.7874 0.4826 1.0414 0.8128 0.7112 0.076-0.0508 0.127-0.2032 0.1524-0.508 0.025-0.254 0.025-0.7112 0.051-1.3208 0-0.5842 0-1.397-0.025-2.3876-0.051-4.191-0.254-7.3406-0.635-9.4742s-0.9906-3.5052-1.778-4.1402c-0.4826-0.381-1.0668-0.6096-1.778-0.6858-0.7366-0.0762-2.159-0.127-4.2926-0.1016-1.6764 0.0254-2.794 0.0508-3.3782 0.0762-0.5842 0.0508-1.016 0.1524-1.2954 0.2794l-0.635 0.3302-0.025 4.7752c-0.025 4.3942 0.051 7.4676 0.2032 9.1948 0.1524 1.778 0.4572 2.9972 0.9398 3.7084z" stroke-width=".26458"/>
  </g>
 </g>
</svg>
