<svg width="27.502mm" height="31.312mm" version="1.1" viewBox="0 0 27.502 31.312" xmlns="http://www.w3.org/2000/svg">
 <g transform="translate(1235.3 -50.718)">
  <g stroke-width=".26458" style="font-feature-settings:normal;font-variant-caps:normal;font-variant-ligatures:normal;font-variant-numeric:normal" aria-label="">
   <path d="m-1227.4 75.721c0.1524 0.1524 0.254 0.2286 0.3302 0.2286 0.127 0 0.3302-0.2032 0.635-0.5842s0.635-0.9144 1.016-1.5494c0.6858-1.1684 1.4478-2.3622 2.286-3.6068 0.8382-1.2446 1.3208-1.8542 1.4478-1.8542 0.1524 0 0.6858 0.6096 1.6002 1.8288 0.9398 1.2446 1.5748 2.1844 1.9304 2.8448 0.2794 0.5334 0.508 0.889 0.7112 1.016 0.1524 0.1524 0.381 0.1778 0.6096 0.1016s0.3556-0.2286 0.4064-0.4572c0.025-0.2286-0.025-0.508-0.1778-0.9144-0.1524-0.3556-0.4064-0.8128-0.7366-1.3462s-0.762-1.143-1.2954-1.8542l-1.3462-1.778 0.762-0.0508c0.3302-0.0254 0.762-0.0254 1.27 0.0508 0.4826 0.0508 1.4224 0.1778 2.8194 0.4064 0.254 0.0254 0.4318 0.0254 0.5334 0 0.127-0.0508 0.254-0.1778 0.381-0.381 0.1524-0.2286 0.2286-0.381 0.2286-0.4826 0.025-0.0508-0.051-0.1778-0.2032-0.3556-0.3302-0.3556-1.778-0.6604-4.3942-0.889-0.889-0.0762-1.3716-0.1778-1.4478-0.2794-0.025-0.0254 0.051-0.254 0.254-0.7112 0.2032-0.4064 0.4572-0.9144 0.7874-1.4478 1.2446-2.1844 2.0828-4.0132 2.54-5.461 0.127-0.381 0.1778-0.6096 0.1524-0.7112-0.025-0.127-0.127-0.254-0.3048-0.381-0.025-0.0254-0.025-0.0254-0.051-0.0254-0.2286-0.1524-0.381-0.1524-0.4826 0-0.127 0.1778-0.4064 0.7874-0.889 1.8288l-0.076 0.1524c-0.381 0.889-1.0668 2.1336-1.9812 3.7592-0.9652 1.6256-1.4732 2.4384-1.5748 2.4384s-0.6096-0.635-1.4986-1.9304-1.5748-2.3368-2.032-3.1242c-0.3302-0.635-0.635-1.0922-0.889-1.397-0.4826-0.6096-0.889-0.635-1.1684-0.1016-0.127 0.254-0.127 0.5842 0.051 0.9906 0.1524 0.3302 0.5334 0.9906 1.1684 1.9558 0.6096 1.016 1.2446 2.0066 1.9304 2.9972l0.7874 1.1938h-3.8862c-0.3048 0-0.5842 0.0254-0.8636 0.0254-0.254 0.0508-0.4572 0.0762-0.5588 0.1016-0.1524 0.0254-0.254 0.0762-0.3302 0.1524-0.076 0.0762-0.127 0.1524-0.1524 0.2286-0.025 0.0762-0.025 0.2032-0.025 0.3302s0 0.254 0.025 0.3048c0.025 0.1016 0.076 0.1524 0.1524 0.254 0.076 0.0508 0.1778 0.127 0.3302 0.1524 0.1016 0.0254 0.3048 0.0508 0.5588 0.1016 0.254 0 0.5334 0.0254 0.8382 0.0254h1.2192c1.8034 0 2.6924 0.0762 2.6924 0.1778 0 0.1524-0.508 0.9906-1.5494 2.5908-1.2954 1.9558-2.0828 3.175-2.3368 3.6576-0.3048 0.508-0.4318 0.889-0.4318 1.1176 0 0.3048 0.076 0.5334 0.2286 0.6604z" stroke-width=".26458"/>
  </g>
 </g>
</svg>
