<svg width="27.502mm" height="31.312mm" version="1.1" viewBox="0 0 27.502 31.312" xmlns="http://www.w3.org/2000/svg">
 <g transform="translate(1235.3 -50.718)">
  <g stroke-width=".26458" style="font-feature-settings:normal;font-variant-caps:normal;font-variant-ligatures:normal;font-variant-numeric:normal" aria-label="">
   <path d="m-1227.8 76.966c0.1016 0.1016 0.3302 0.1016 0.6858-0.0254 0.3302-0.1016 0.6858-0.3048 1.0414-0.5842 0.2032-0.1524 0.5334-0.381 1.016-0.7366 0.4826-0.3048 0.9652-0.6604 1.4478-0.9906 1.1938-0.7874 2.2352-1.5494 3.0988-2.2606 0.889-0.7366 2.0574-1.778 3.4544-3.1242 1.397-1.3462 2.0828-2.0828 2.0828-2.2098s-0.6096-0.9906-1.8542-2.54c-1.0668-1.3462-2.3368-2.7178-3.81-4.1148-1.4732-1.3716-2.8448-2.4892-4.1402-3.3528-1.2954-0.889-2.2352-1.3208-2.8194-1.3208-0.2794 0-0.4318 0.1016-0.4064 0.3302 0.1016 0.3048 0.4572 0.6096 1.0668 0.9398 0.6604 0.3556 1.5748 0.9906 2.7686 1.905 1.1684 0.9144 2.1844 1.778 3.048 2.6162 0.8128 0.7874 1.7018 1.778 2.6416 2.9972 0.9398 1.1684 1.4224 1.905 1.4224 2.1844 0 0.254-0.4318 0.8128-1.2954 1.6764-0.889 0.8382-1.9558 1.778-3.2004 2.794-1.27 1.016-2.413 1.8542-3.4544 2.5146-1.0922 0.6858-1.8288 1.2446-2.2606 1.6002-0.4318 0.4064-0.6604 0.7366-0.6604 1.0414 0 0.3556 0.051 0.5842 0.127 0.6604z" stroke-width=".26458"/>
  </g>
 </g>
</svg>
