<svg width="27.502mm" height="31.312mm" version="1.1" viewBox="0 0 27.502 31.312" xmlns="http://www.w3.org/2000/svg">
 <g transform="translate(1235.3 -50.718)">
  <g stroke-width=".26458" style="font-feature-settings:normal;font-variant-caps:normal;font-variant-ligatures:normal;font-variant-numeric:normal" aria-label="">
   <path d="m-1221.5 69.244c0.2032 0.0508 0.4826-0.1016 0.762-0.4572 0.3048-0.3556 0.6858-0.9906 1.143-1.8796 0.8636-1.7018 0.9906-2.7686 0.3556-3.2004-0.2794-0.2032-0.4572-0.2794-0.5588-0.2286-0.076 0.0762-0.2794 0.4826-0.5334 1.2192-0.1016 0.3302-0.2286 0.635-0.4064 0.9652-0.1524 0.3048-0.3048 0.5334-0.4064 0.6604l-0.4318 0.4826-0.7112-0.8636c-0.1524-0.1778-0.2794-0.3302-0.4064-0.4572-0.6604-0.7366-1.0922-1.0414-1.2954-0.9398-0.2286 0.127-0.076 0.6604 0.4826 1.5748 0.508 0.889 0.9144 1.6002 1.2192 2.1844 0.1016 0.254 0.254 0.4572 0.4064 0.6604 0.1778 0.1524 0.2794 0.254 0.381 0.2794z" stroke-width=".26458"/>
  </g>
 </g>
</svg>
