<svg width="27.502mm" height="31.312mm" version="1.1" viewBox="0 0 27.502 31.312" xmlns="http://www.w3.org/2000/svg">
 <g transform="translate(1235.3 -50.718)">
  <g stroke-width=".26458" style="font-feature-settings:normal;font-variant-caps:normal;font-variant-ligatures:normal;font-variant-numeric:normal" aria-label="">
   <path d="m-1211.9 68.863c0.1524 0.1778 0.2794 0.2794 0.3302 0.3048 0.076 0.0254 0.2286-0.0254 0.4572-0.1524 0.3556-0.2032 0.4318-0.635 0.254-1.3208-0.2032-0.6604-0.635-1.4478-1.3462-2.3368-0.508-0.6858-1.016-1.1176-1.4732-1.3462s-1.1176-0.3302-2.032-0.3302-1.8034 0.1778-2.667 0.508c-0.8382 0.3302-1.9304 0.9398-3.2512 1.8034-1.143 0.7366-2.159 1.2192-2.9972 1.397-0.8636 0.2032-1.7018 0.1524-2.54-0.1524-0.8128-0.3302-1.778-0.9398-2.8702-1.8796-0.4064-0.3556-0.7112-0.5842-0.9144-0.6858-0.2286-0.1016-0.4318-0.1524-0.6858-0.127-0.2286 0.0254-0.381 0.0508-0.4572 0.127-0.051 0.0762-0.076 0.1778-0.076 0.3048 0.051 0.3048 0.3556 0.7366 0.889 1.2954 0.5334 0.5334 1.143 1.0414 1.8034 1.524 0.6858 0.4826 1.2192 0.762 1.6256 0.8636 1.1176 0.254 2.2352 0.254 3.3782 0 1.1684-0.2286 2.2606-0.7112 3.302-1.4224 2.5654-1.7018 4.5212-2.4638 5.842-2.2606 0.3302 0.0508 0.5842 0.127 0.7874 0.254s0.4572 0.3556 0.762 0.6858c0.4826 0.5588 0.8636 1.143 1.1684 1.7272s0.5588 0.9906 0.7112 1.2192z" stroke-width=".26458"/>
  </g>
 </g>
</svg>
