<svg width="27.502mm" height="31.312mm" version="1.1" viewBox="0 0 27.502 31.312" xmlns="http://www.w3.org/2000/svg">
 <g transform="translate(1235.3 -50.718)">
  <g stroke-width=".26458" style="font-feature-settings:normal;font-variant-caps:normal;font-variant-ligatures:normal;font-variant-numeric:normal" aria-label="">
   <path d="m-1220.2 74.756c-3.2766 0.1016-5.5372 0.1524-6.7818 0.1524-1.2446 0.0254-1.8796-0.0254-1.905-0.1016-0.051-0.1016 0-0.9652 0.076-2.5908 0.1016-1.6002 0.2286-3.6322 0.4318-6.096 0.025-0.381 0.076-0.889 0.127-1.5748 0.1778-2.5146 0.3048-4.0132 0.381-4.4704 0.076-0.4572 0.2286-0.8128 0.4826-1.0922 0.051-0.0762 0.076-0.127 0.127-0.1778l0.6096-0.7112 3.556-0.0254c2.3368-0.0254 4.3688-0.1016 6.096-0.2032l2.5654-0.1524 0.127 2.032c0.076 1.397 0.127 3.2766 0.127 5.6388s-0.051 4.3942-0.127 6.096l-0.127 2.7432-1.6256 0.2286c-1.0668 0.1524-2.4638 0.254-4.1402 0.3048zm-9.8552 1.778c0.1778 0.2286 0.3556 0.3302 0.4826 0.3556 0.1524 0 0.508-0.0762 1.1176-0.2032 0.5588-0.1016 2.54-0.2286 5.9944-0.3556 4.4196-0.1778 7.0866-0.2794 8.0264-0.3556 0.9144-0.0762 1.4224-0.1778 1.524-0.3556 0.051-0.1778 0.051-3.302 0-9.398-0.076-6.1214-0.1524-9.3472-0.2286-9.6774-0.076-0.2032-0.1778-0.3556-0.3048-0.4318s-0.3302-0.127-0.6604-0.1524c-0.3048-0.0254-0.7366 0.0254-1.2954 0.1016-3.6576 0.4572-6.6294 0.635-8.9662 0.508l-2.6416-0.127-0.6858 0.5334c-0.4572 0.3556-0.7874 0.5588-0.9906 0.635-0.127 0.0508-0.2032 0.1778-0.2794 0.4318-0.051 0.2032-0.1016 0.635-0.127 1.2446-0.076 1.0414-0.3048 4.1148-0.7112 9.2202-0.3048 3.7084-0.4572 5.9182-0.4826 6.6548-0.025 0.7366 0.051 1.1938 0.2286 1.3716z" stroke-width=".26458"/>
  </g>
 </g>
</svg>
