<svg width="27.502mm" height="31.312mm" version="1.1" viewBox="0 0 27.502 31.312" xmlns="http://www.w3.org/2000/svg">
 <g transform="translate(1235.3 -50.718)">
  <g stroke-width=".26458" style="font-feature-settings:normal;font-variant-caps:normal;font-variant-ligatures:normal;font-variant-numeric:normal" aria-label="">
   <path d="m-1219.8 62.386c-0.381 0.1778-0.9144 0.2794-1.651 0.2286-0.7366 0-1.2954-0.127-1.7272-0.3556s-0.762-0.508-0.9652-0.8128c-0.1778-0.2794-0.3302-0.7112-0.4064-1.27l-0.127-0.9144h6.4516l-0.076 0.9652c-0.051 0.4826-0.2032 0.9144-0.4318 1.27-0.2286 0.3302-0.5842 0.635-1.0668 0.889zm-3.5306 1.3716c0.5588 0.254 1.3208 0.381 2.286 0.381 0.6604 0 1.1176-0.0254 1.3716-0.1016 0.2286-0.0762 0.5588-0.2286 0.9652-0.508 0.5334-0.3556 0.9398-0.762 1.2192-1.1684 0.2794-0.4572 0.508-1.0414 0.6858-1.8288v-0.0762c0.2286-0.9906 0.3556-1.6002 0.3556-1.8034s-0.1016-0.4064-0.3048-0.5842l-0.025-0.0254c-0.1778-0.1778-0.508-0.2794-0.9652-0.3048-0.4826-0.0508-1.6256-0.1016-3.4798-0.1524-1.1176-0.0254-2.0066-0.0254-2.667-0.0508-0.6858 0-1.1938 0.0254-1.524 0.1016-0.3302 0.0508-0.5588 0.127-0.6604 0.2286s-0.1524 0.254-0.127 0.4826c0.1016 1.143 0.254 2.032 0.4572 2.6924 0.2032 0.6858 0.4826 1.2192 0.8636 1.6256 0.381 0.4318 0.889 0.7874 1.5494 1.0922zm5.3086 9.6774c-0.025 0.0254-0.6096 0.0508-1.7018 0.0762-1.1176 0.0254-2.2098 0.0254-3.302 0s-1.6256-0.0508-1.6256-0.0762c0-0.0762 0.3556-0.5334 1.0922-1.397 0.3048-0.3556 0.635-0.7874 0.9652-1.27s0.5842-0.9144 0.762-1.27c0.127-0.2286 0.2286-0.4318 0.3302-0.5842 0.127-0.2032 0.2286-0.3302 0.3048-0.4064 0.076-0.1016 0.127-0.127 0.1524-0.1016 0.1778 0.2032 0.7366 1.0668 1.6764 2.6416 0.9398 1.524 1.3716 2.3368 1.3462 2.3876zm-8.5598 1.2192 0.508 0.5588h9.2964l0.381-0.6604c0.025 0 0.025-0.0254 0.051-0.0508 0.2032-0.3302 0.254-0.635 0.1778-0.8636-0.076-0.2286-0.4826-0.889-1.2192-1.9812-0.076-0.127-0.127-0.2286-0.1524-0.2794-0.762-1.143-1.3208-2.0828-1.7018-2.8194-0.381-0.762-0.7112-1.3462-1.0414-1.7526-0.1778-0.254-0.3556-0.4064-0.4826-0.4826s-0.3556-0.1016-0.635-0.0762c-0.1778 0.0254-0.3556 0.0508-0.508 0.127-0.1778 0.0508-0.2794 0.127-0.3048 0.2032-0.1016 0.2032-0.4064 0.8382-0.9144 1.905-0.2794 0.6096-0.5842 1.143-0.9144 1.6002-0.3048 0.4572-0.7366 0.9906-1.3208 1.6002-0.381 0.4318-0.6858 0.762-0.889 0.9906-0.2032 0.254-0.381 0.4826-0.5334 0.6858-0.127 0.2032-0.2032 0.381-0.2032 0.508s0.025 0.254 0.1016 0.381c0.051 0.127 0.1524 0.254 0.3048 0.4064z" stroke-width=".26458"/>
  </g>
 </g>
</svg>
