<svg width="27.502mm" height="31.312mm" version="1.1" viewBox="0 0 27.502 31.312" xmlns="http://www.w3.org/2000/svg">
 <g transform="translate(1235.3 -50.718)">
  <g stroke-width=".26458" style="font-feature-settings:normal;font-variant-caps:normal;font-variant-ligatures:normal;font-variant-numeric:normal" aria-label="">
   <path d="m-1222.8 64.342c0.2794 0.381 0.5588 0.5842 0.8636 0.5588 0.3048 0 0.5842-0.2032 0.8382-0.6096 0.254-0.381 0.3302-0.8128 0.3048-1.3208-0.051-0.508-0.2286-0.889-0.5334-1.1176-0.254-0.2286-0.5588-0.3302-0.9144-0.3048-0.3556 0-0.635 0.127-0.8382 0.3556s-0.2794 0.6096-0.2286 1.1176c0.051 0.4826 0.2286 0.9398 0.508 1.3208zm7.7978 4.7498c0.2032 0.2032 0.4318 0.2032 0.6604 0.0254 0.254-0.2032 0.3556-0.4826 0.3556-0.8382 0-0.1778 0-0.3048-0.025-0.4318-0.025-0.1016-0.1016-0.2032-0.2032-0.2794s-0.2286-0.1524-0.3556-0.2032c-0.1524-0.0508-0.381-0.1016-0.7112-0.127-0.3048-0.0254-0.6604-0.0508-1.0414-0.0762-0.3556-0.0254-0.8636-0.0254-1.4986-0.0254-2.1082-0.0254-4.5212-0.0254-7.2136 0.0254-1.9304 0.0508-3.0734 0.1016-3.4798 0.1524-0.381 0.0508-0.5842 0.1524-0.6096 0.3302 0 0.1016 0.025 0.2286 0.076 0.3556 0.076 0.1524 0.1524 0.2794 0.254 0.381 0.2032 0.1778 0.6604 0.3048 1.3462 0.3302 0.6858 0.0508 2.5908 0.1016 5.6896 0.127 4.4196 0.0762 6.6802 0.1778 6.7564 0.254z" stroke-width=".26458"/>
  </g>
 </g>
</svg>
