<svg width="27.502mm" height="31.312mm" version="1.1" viewBox="0 0 27.502 31.312" xmlns="http://www.w3.org/2000/svg">
 <g transform="translate(1235.3 -50.718)">
  <g stroke-width=".26458" style="font-feature-settings:normal;font-variant-caps:normal;font-variant-ligatures:normal;font-variant-numeric:normal" aria-label="">
   <path d="m-1226.3 75.797c0.2794 0.2794 0.4826 0.4572 0.6604 0.4826 0.1524 0.0508 0.3556 0 0.5588-0.1778 0.051-0.0508 0.1016-0.1524 0.1524-0.3048 0.051-0.1524 0.1016-0.4318 0.1524-0.8382 0.025-0.4064 0.076-0.9144 0.127-1.524 0.051-0.635 0.1016-1.4732 0.1524-2.5654 0.1778-2.7686 0.3556-4.7498 0.5842-5.8674 0.2032-1.1684 0.5842-2.2606 1.143-3.302 0.3556-0.6858 0.8636-1.3716 1.524-2.0828 0.635-0.7366 1.1684-1.1684 1.524-1.3208 0.8128-0.3302 1.524-0.2286 2.159 0.3048 0.6096 0.5334 1.2192 1.5494 1.8288 3.048 0.4572 1.1684 0.762 2.2606 0.9398 3.2512 0.1524 0.9906 0.2794 2.7178 0.3556 5.1308 0.051 1.2446 0.1016 2.3876 0.1778 3.3528 0.076 1.016 0.127 1.5748 0.1778 1.7526 0.254 0.6858 0.7112 0.9144 1.3462 0.7112 0.1778-0.0508 0.2794-0.127 0.3048-0.2794 0.051-0.1016 0.025-0.381-0.025-0.8128-0.076-0.635-0.1778-2.2352-0.2794-4.8006-0.076-1.9304-0.2032-3.4798-0.381-4.6482-0.1524-1.1684-0.4318-2.286-0.7874-3.3274-0.4064-1.2192-0.9398-2.286-1.5494-3.2258-0.635-0.9144-1.2446-1.5494-1.8796-1.8796-0.381-0.2286-0.9398-0.3302-1.7018-0.3302-0.4826 0-0.8382 0.0254-1.0668 0.1016s-0.5334 0.2286-0.9144 0.4826c-1.016 0.7112-1.9304 1.6764-2.6924 2.921-0.7874 1.2446-1.3208 2.5654-1.6764 3.9878-0.2032 0.889-0.4064 2.4892-0.5334 4.826-0.1524 2.3368-0.254 3.5814-0.3556 3.7338-0.051 0.1016-0.1524 0.127-0.254 0.1016-0.2286-0.1016-0.762-0.889-1.6256-2.3876-0.762-1.3462-1.27-2.159-1.524-2.413-0.2032-0.2286-0.4064-0.3556-0.6096-0.3556-0.2032-0.0508-0.3302 0.0508-0.4064 0.2286-0.076 0.2286 0.508 1.4732 1.778 3.7846 1.2446 2.286 2.1336 3.7084 2.6162 4.2418z" stroke-width=".26458"/>
  </g>
 </g>
</svg>
