<svg width="27.502mm" height="31.312mm" version="1.1" viewBox="0 0 27.502 31.312" xmlns="http://www.w3.org/2000/svg">
 <g transform="translate(1235.3 -50.718)">
  <g stroke-width=".26458" style="font-feature-settings:normal;font-variant-caps:normal;font-variant-ligatures:normal;font-variant-numeric:normal" aria-label="">
   <path d="m-1222.1 67.365c0.1778 0.2032 0.381 0.3048 0.6096 0.3302 0.2032 0.0254 0.508-0.0508 0.9144-0.1778 0.3302-0.127 0.5588-0.3048 0.635-0.4826 0.076-0.1778 0.076-0.4826-0.051-0.889-0.076-0.3302-0.254-0.6096-0.5334-0.7874-0.2794-0.2032-0.5588-0.3048-0.889-0.254-0.3302 0-0.6096 0.1524-0.8382 0.381s-0.3048 0.508-0.3048 0.889c0.051 0.381 0.1778 0.7112 0.4572 0.9906zm3.9116 2.3876c-2.667 0.254-5.0546 0.2286-7.1374-0.1016-0.7366-0.127-1.4224-0.254-2.1082-0.4318-2.1336-0.5334-3.6068-1.1938-4.4196-1.9558-0.7112-0.6858-0.7112-1.27 0-1.778 0.3302-0.2286 1.016-0.508 2.0828-0.8382 1.016-0.3302 2.0574-0.5842 3.048-0.762 1.2446-0.2286 2.8448-0.4572 4.826-0.6096 2.0066-0.2032 3.3782-0.254 4.1656-0.2032 0.762 0.0254 1.6256 0.2032 2.54 0.5588 0.9652 0.3048 1.8034 0.7366 2.5908 1.27 0.4826 0.3302 0.9144 0.7366 1.27 1.2192 0.4064 0.508 0.5588 0.889 0.508 1.143-0.051 0.2794-0.4572 0.6096-1.1938 0.9398-0.7366 0.3556-1.6764 0.6858-2.8194 0.9652s-2.2606 0.4826-3.3528 0.5842zm-7.1374 1.4224c0.9398 0.1524 2.3368 0.2286 4.191 0.254 1.8796 0.0254 3.302-0.0508 4.2926-0.1778 3.683-0.4826 6.1468-1.2954 7.4168-2.413 0.4318-0.381 0.635-0.7366 0.6858-1.0668 0-0.3302-0.1524-0.8636-0.4826-1.5748-0.3302-0.7366-0.8382-1.397-1.5494-2.0066-0.6604-0.5842-1.6002-1.1938-2.7686-1.778l-1.9812-0.9906h-2.3622c-1.4986 0-3.4798 0.1524-5.969 0.4318s-4.318 0.5842-5.4864 0.889c-1.0668 0.2794-2.0066 0.635-2.8702 0.9906-0.8128 0.4064-1.3716 0.762-1.651 1.0922-0.254 0.3302-0.381 0.7874-0.381 1.2954 0 0.5588 0.1524 1.016 0.4318 1.4224 0.5334 0.7874 1.5494 1.524 3.0734 2.159 1.4732 0.635 3.302 1.143 5.4102 1.4732z" stroke-width=".26458"/>
  </g>
 </g>
</svg>
