<svg width="27.502mm" height="31.312mm" version="1.1" viewBox="0 0 27.502 31.312" xmlns="http://www.w3.org/2000/svg">
 <g transform="translate(1235.3 -50.718)">
  <g stroke-width=".26458" style="font-feature-settings:normal;font-variant-caps:normal;font-variant-ligatures:normal;font-variant-numeric:normal" aria-label="">
   <path d="m-1223 75.188c0.7874 0.381 1.6002 0.4826 2.4384 0.3302 0.8382-0.2032 1.6002-0.635 2.3368-1.3462 0.5842-0.5842 0.9906-1.0922 1.2192-1.524s0.4826-1.1938 0.8128-2.2606c0.2286-0.762 0.381-1.4986 0.4572-2.2098 0.076-0.7112 0.127-2.286 0.2032-4.699 0.076-2.2352 0.1016-3.7084 0.076-4.3688-0.025-0.7112-0.076-1.143-0.2032-1.3208-0.381-0.5842-0.762-0.7112-1.143-0.3302-0.127 0.127-0.2286 0.4826-0.2794 1.0668-0.051 0.5842-0.076 1.905-0.076 3.9878 0 2.4384-0.051 4.1402-0.1524 5.08-0.1016 0.9652-0.3302 1.905-0.6858 2.8194-0.4064 1.016-0.9398 1.8288-1.5748 2.413s-1.3208 0.889-2.032 0.889c-0.9906 0-1.8542-0.4826-2.5908-1.4478-0.7366-0.9906-1.27-2.3876-1.651-4.2164s-0.5588-4.0132-0.5588-6.5024c0-2.54-0.2286-3.7846-0.6604-3.7846-0.1778 0-0.3302 0.2032-0.4064 0.635-0.076 0.4064-0.1524 1.2192-0.2032 2.4638-0.076 1.905 0.025 3.8862 0.3302 6.0198 0.3048 2.0828 0.7366 3.7084 1.27 4.8514 0.3302 0.7112 0.8128 1.397 1.397 2.0574 0.5842 0.6858 1.143 1.143 1.6764 1.397z" stroke-width=".26458"/>
  </g>
 </g>
</svg>
