<svg width="27.502mm" height="31.312mm" version="1.1" viewBox="0 0 27.502 31.312" xmlns="http://www.w3.org/2000/svg">
 <g transform="translate(1235.3 -50.718)">
  <g stroke-width=".26458" style="font-feature-settings:normal;font-variant-caps:normal;font-variant-ligatures:normal;font-variant-numeric:normal" aria-label="">
   <path d="m-1215.8 65.231c-0.076 0.0762-0.6096 0.127-1.6256 0.1524-0.9906 0.0254-1.7272 0.0254-2.159 0l-0.889-0.0762v-0.8128c0-0.5334 0.051-1.397 0.127-2.54l0.127-1.7272 0.762 0.127c1.397 0.2286 2.3114 0.8382 2.794 1.8796 0.2286 0.4572 0.4572 1.0668 0.6604 1.8034s0.2794 1.143 0.2032 1.1938zm-6.223 0c-0.3302 0.1016-1.2446 0.1778-2.7686 0.2032-1.4986 0.0254-2.286 0-2.3368-0.0762-0.1016-0.1778 0.025-0.5588 0.381-1.1938 0.3556-0.635 0.8128-1.2446 1.3462-1.8288 0.4572-0.4826 1.0922-1.0414 1.905-1.6764 0.8382-0.635 1.3462-0.9398 1.5494-0.9398 0.076 0 0.127 0.4572 0.1524 1.3716 0.025 0.889 0.025 1.8034-0.025 2.7432-0.051 0.9144-0.127 1.3716-0.2032 1.397zm3.2766 7.0612c-0.2286 0.1524-0.4826 0.2794-0.7366 0.381-0.254 0.127-0.4318 0.1778-0.5588 0.1778h-0.4318v-5.8166h1.1684c0.7874-0.0254 1.6002 0.0254 2.4638 0.1016l1.2954 0.127-0.127 0.7366c-0.076 0.4826-0.2032 0.9144-0.381 1.2446-0.254 0.508-0.6604 1.0668-1.2192 1.7018s-1.0414 1.0668-1.4732 1.3462zm-3.3782-0.127c-0.076 0.381-0.1778 0.635-0.3048 0.7112s-0.4572 0.1016-0.9398 0.0254c-0.8382-0.127-1.5748-0.4064-2.2098-0.8382-0.6096-0.4318-1.0922-1.016-1.4478-1.7526-0.3302-0.6604-0.5588-1.3462-0.6858-2.0574-0.127-0.6858-0.076-1.0668 0.127-1.1176 0.1778-0.0508 1.1684-0.1016 2.9464-0.1778l2.667-0.1016-0.025 2.286c0 1.524-0.051 2.54-0.127 3.0226zm-0.9906 2.1844c0.762 0.1524 1.6002 0.1778 2.54 0.1016 0.9398-0.1016 1.7018-0.2794 2.2606-0.5588 0.5842-0.3048 1.2446-0.8128 1.9304-1.524s1.2446-1.4224 1.6256-2.159c0.381-0.7112 0.6096-1.5748 0.6604-2.5908 0.051-1.016-0.076-2.1336-0.3556-3.3274-0.4064-1.7272-0.9398-2.9972-1.6002-3.81-0.635-0.7874-1.651-1.397-3.0226-1.8034-0.7874-0.254-1.4478-0.4064-1.9812-0.4572s-1.0668 0.0254-1.6256 0.1778c-0.5334 0.2032-1.0668 0.4826-1.5748 0.889-0.4826 0.4064-1.1176 0.9906-1.8542 1.7272-0.889 0.889-1.5494 1.778-1.9812 2.6162-0.4318 0.8636-0.7366 1.8288-0.8636 2.8702-0.1778 1.3208-0.051 2.54 0.3556 3.6322 0.4318 1.0922 1.0922 2.0066 2.0066 2.6924 0.9906 0.762 2.1336 1.27 3.4798 1.524z" stroke-width=".26458"/>
  </g>
 </g>
</svg>
