<svg width="27.502mm" height="31.312mm" version="1.1" viewBox="0 0 27.502 31.312" xmlns="http://www.w3.org/2000/svg">
 <g transform="translate(1235.3 -50.718)">
  <g stroke-width=".26458" style="font-feature-settings:normal;font-variant-caps:normal;font-variant-ligatures:normal;font-variant-numeric:normal" aria-label="">
   <path d="m-1219.1 71.124c-1.3462 0.4064-2.6162 0.4318-3.7592 0.0762-1.2954-0.4318-2.3876-1.016-3.2766-1.8288-0.889-0.762-1.651-1.8034-2.286-3.0734-0.3048-0.635-0.508-1.0922-0.5842-1.397-0.076-0.3048-0.1016-0.8128-0.1016-1.4986 0-0.889 0.1016-1.6002 0.3302-2.159s0.6858-1.1684 1.3208-1.8542c0.5588-0.5842 1.1176-1.016 1.651-1.2446 0.5334-0.254 1.2954-0.4318 2.2606-0.508 1.0922-0.1016 1.778-0.2286 2.032-0.3556 0.381-0.1778 0.9906-0.3048 1.8288-0.3048 0.8636-0.0508 1.524 0.0254 1.9812 0.2032 0.635 0.2286 1.2192 0.7112 1.7526 1.4224 0.5588 0.7112 1.016 1.5748 1.3716 2.5908 0.3556 0.9906 0.5842 2.032 0.6604 3.1242 0.076 0.7366 0.076 1.2192 0.025 1.4732s-0.2286 0.7112-0.5588 1.3462c-0.4826 0.9906-1.143 1.8288-1.9558 2.4892-0.7874 0.7112-1.7018 1.1938-2.6924 1.4986zm-1.4986 3.9878c-0.5842 0.2794-0.9906 0.4572-1.2192 0.4572-0.2286 0.0508-0.4318-0.0508-0.635-0.254-0.3302-0.3302-0.4572-0.7112-0.3556-1.1684 0.127-0.4064 0.4064-0.762 0.889-1.016 0.8382-0.4318 1.4478-0.3556 1.8034 0.1778 0.2286 0.381 0.3048 0.7112 0.2286 1.0414-0.076 0.3302-0.3302 0.5842-0.7112 0.762zm-1.9558 1.8034c0.4318 0.1778 0.8382 0.254 1.2446 0.2286s0.889-0.1778 1.4224-0.4572c0.6858-0.3302 1.143-0.6858 1.397-1.016 0.2286-0.3302 0.3302-0.762 0.2794-1.2954-0.051-0.5842-0.127-1.016-0.2032-1.3208-0.051-0.2286-0.025-0.381 0.051-0.4826 0.076-0.0762 0.3556-0.2286 0.8128-0.4318 0.635-0.2794 1.3462-0.6858 2.0828-1.2954 0.7366-0.5588 1.3208-1.143 1.7272-1.7018 0.1778-0.2286 0.3556-0.5588 0.5588-0.9652 0.2286-0.4064 0.381-0.7874 0.4826-1.1176 0.2032-0.6858 0.3048-1.3462 0.2794-2.032-0.025-0.6858-0.1524-1.524-0.4064-2.5654-0.1778-0.6858-0.5334-1.6002-1.1176-2.7432-0.5588-1.1176-1.0414-1.905-1.4224-2.3368s-0.889-0.8128-1.5494-1.1684c-0.6604-0.3302-1.2954-0.5588-1.905-0.635-0.635-0.0762-1.9304 0.0508-3.8862 0.3302s-3.2512 0.5588-3.8862 0.8382c-0.5588 0.2286-1.1938 0.7112-1.8796 1.397-0.6858 0.7112-1.1684 1.397-1.4986 2.0828-0.3302 0.6604-0.508 1.4986-0.5588 2.54-0.025 1.016 0.076 1.905 0.3556 2.667 0.4064 1.143 1.1176 2.3368 2.1336 3.5306s2.0574 2.1082 3.0988 2.6924c0.3302 0.1778 0.5842 0.3556 0.7112 0.4572 0.127 0.1524 0.1778 0.254 0.1524 0.3556-0.3302 0.8636-0.3556 1.7272-0.051 2.6416 0.3048 0.8636 0.8382 1.4732 1.5748 1.8034z" stroke-width=".26458"/>
  </g>
 </g>
</svg>
