<svg width="27.502mm" height="31.312mm" version="1.1" viewBox="0 0 27.502 31.312" xmlns="http://www.w3.org/2000/svg">
 <g transform="translate(1235.3 -50.718)">
  <g stroke-width=".26458" style="font-feature-settings:normal;font-variant-caps:normal;font-variant-ligatures:normal;font-variant-numeric:normal" aria-label="">
   <path d="m-1218.7 72.953c-0.5842 0.3302-1.1938 0.4826-1.8288 0.4318-0.6604 0-1.27-0.1524-1.8288-0.4064-0.5588-0.2794-1.0922-0.6604-1.5494-1.1684-0.4826-0.5334-0.8382-1.1176-1.0922-1.8034-0.2794-0.7366-0.4572-1.651-0.508-2.7178-0.051-1.0668 0-2.032 0.1778-2.9464 0.1524-0.8636 0.4064-1.4732 0.762-1.778 0.2032-0.1778 0.4064-0.2794 0.5588-0.3048 0.1524-0.0508 0.3556-0.0508 0.635-0.0254 0.4572 0.0762 1.2954 0.127 2.5146 0.1016 0.8128 0 1.3716 0.0254 1.7018 0.0762 0.3048 0.0508 0.6858 0.1778 1.143 0.4064 0.635 0.3048 1.1176 0.6604 1.4732 1.0668 0.3556 0.381 0.6096 0.9144 0.8128 1.6002 0.2032 0.6604 0.254 1.3716 0.1778 2.1336-0.1016 0.762-0.2794 1.4986-0.5334 2.159-0.254 0.7112-0.635 1.3208-1.0922 1.8796-0.4572 0.5842-0.9652 1.016-1.524 1.2954zm-4.064 1.524c0.5588 0.1778 1.27 0.254 2.159 0.2286s1.651-0.1524 2.2606-0.381c0.8128-0.3048 1.5748-0.8382 2.2352-1.6002s1.1938-1.6764 1.5748-2.7178c0.3556-1.0414 0.5588-2.1336 0.5588-3.2766-0.025-1.0668-0.3048-2.2352-0.8382-3.4798-0.051-0.127-0.076-0.2286-0.051-0.2794s0.1016-0.0762 0.2032-0.0762c0.4064 0 0.9144-0.2286 1.524-0.6858s1.0668-0.9144 1.3208-1.397c0.2032-0.3556 0.2794-0.762 0.2794-1.1938-0.025-0.4572-0.127-0.7112-0.3048-0.7874-0.4572-0.1524-0.8636 0.127-1.2192 0.8636-0.254 0.4572-0.4826 0.7874-0.6858 0.9906-0.2286 0.2032-0.635 0.4572-1.1938 0.7366l-1.0668 0.5334-1.016-0.4572c-0.5334-0.2286-1.4478-0.4572-2.7178-0.6858-1.2954-0.2286-2.3622-0.3302-3.2004-0.3302-1.27 0-2.2352 0.4572-2.9464 1.397-0.1524 0.1778-0.3048 0.3302-0.4318 0.4826-0.1524 0.1016-0.254 0.1778-0.3048 0.1778-0.254 0-0.635-0.254-1.1684-0.762s-1.016-1.0668-1.4732-1.6764-0.6604-1.0414-0.6604-1.3208c0-0.3556-0.1016-0.6096-0.254-0.762-0.1778-0.1524-0.381-0.1778-0.6096-0.0508s-0.4318 0.3556-0.5842 0.6858c-0.254 0.4572-0.2286 0.9652 0.025 1.4732 0.254 0.5588 0.8636 1.3208 1.8288 2.3114 0.4572 0.4826 0.9144 0.9398 1.3462 1.2954 0.4064 0.4064 0.6858 0.5842 0.8128 0.6096s0.2286 0.0762 0.2794 0.127c0.051 0.0508 0.076 0.1778 0.076 0.381s0 0.508-0.051 0.889c-0.076 0.8128-0.025 1.7272 0.127 2.7178 0.1524 1.016 0.4064 1.8796 0.7112 2.5654 0.2794 0.635 0.7874 1.3208 1.5494 2.0828s1.397 1.2192 1.905 1.3716z" stroke-width=".26458"/>
  </g>
 </g>
</svg>
