<svg width="27.502mm" height="31.312mm" version="1.1" viewBox="0 0 27.502 31.312" xmlns="http://www.w3.org/2000/svg">
 <g transform="translate(1235.3 -50.718)">
  <g stroke-width=".26458" style="font-feature-settings:normal;font-variant-caps:normal;font-variant-ligatures:normal;font-variant-numeric:normal" aria-label="">
   <path d="m-1233.6 74.426c0.2794 0.2794 0.4572 0.4318 0.5842 0.4318 0.1016 0.0508 0.254 0 0.4572-0.127 0.1016-0.0762 0.1524-0.2032 0.2032-0.381 0-0.1778 0-0.508-0.025-0.9652-0.1016-1.1176 0.051-2.4384 0.4318-4.0132 0.4064-1.524 0.9906-3.048 1.7272-4.4704 0.762-1.4732 1.5748-2.6162 2.413-3.4798 0.4318-0.4318 1.0922-0.9652 1.9558-1.5748 0.889-0.6096 1.6256-1.0668 2.2606-1.397 0.5334-0.2794 1.1938-0.508 1.9812-0.7112 0.7874-0.1778 1.4986-0.2794 2.0828-0.2794 0.7112 0 1.4986 0.2286 2.3622 0.6604s1.6002 0.9906 2.1844 1.651c1.016 1.1176 1.778 2.159 2.2352 3.1242 0.508 0.9652 0.9652 2.3368 1.4224 4.0894 0.254 0.9398 0.4064 1.6764 0.4572 2.2098 0.076 0.5334 0.1016 1.3716 0.1016 2.4892 0 1.524 0.076 2.4638 0.2032 2.8448 0.127 0.3302 0.3556 0.381 0.6858 0.2032 0.2794-0.127 0.4826-0.4318 0.6096-0.9398 0.127-0.4572 0.2286-1.27 0.3048-2.3622 0.076-1.0922 0-2.1844-0.2286-3.2258-0.2032-1.0414-0.5842-2.3114-1.143-3.7592-0.6604-1.7526-1.6256-3.4036-2.8702-4.9276-1.27-1.5748-2.5146-2.6416-3.7592-3.2512-1.5494-0.762-3.3274-0.889-5.2832-0.4064-1.9812 0.4826-3.9116 1.5494-5.8166 3.2004-1.7018 1.4478-3.0734 3.302-4.1402 5.588s-1.651 4.6482-1.778 7.112c-0.025 0.508-0.025 0.8636-0.051 1.0668v0.635c0 0.2286 0.025 0.381 0.076 0.4572s0.1016 0.1524 0.127 0.2286c0.025 0.0762 0.1016 0.1524 0.2286 0.2794zm13.081 0.4826c-0.5588 0.2286-1.2446 0.381-2.032 0.4572s-1.3716 0.0762-1.7272-0.0508c-0.8636-0.2794-1.5494-0.7112-2.0828-1.2954-0.381-0.381-0.7112-0.9398-1.0668-1.7018-0.3048-0.7874-0.5334-1.5494-0.6604-2.286-0.127-0.762-0.1016-1.4732 0.051-2.0828 0.1524-0.6604 0.4572-1.3208 0.9144-2.0574 0.2794-0.4318 0.8636-1.016 1.778-1.7526 0.889-0.7366 1.651-1.2446 2.2606-1.524 0.3048-0.1778 0.508-0.254 0.635-0.254 0.127 0.0254 0.3302 0.127 0.635 0.3048 0.1778 0.1016 0.4318 0.2032 0.7366 0.3048 0.3302 0.0762 0.6096 0.1524 0.889 0.1778 0.7112 0.0762 1.2954 0.254 1.7526 0.508 0.4318 0.254 0.8382 0.6604 1.2192 1.1938 0.3302 0.508 0.6604 1.1684 0.9398 1.9812s0.4318 1.4478 0.4318 1.9304c0 1.27-0.4318 2.4892-1.3208 3.6322-0.8636 1.143-1.9812 1.9812-3.3528 2.5146zm-3.8862 1.9812c0.4826 0.1524 0.8128 0.2286 0.9906 0.2286 0.1524 0 0.7112-0.0762 1.6764-0.254 2.0828-0.3556 3.7592-1.1684 5.0292-2.413 1.0414-1.0414 1.7526-2.2098 2.1336-3.556 0.3556-1.3208 0.3302-2.6162-0.1016-3.9116-0.2286-0.6604-0.5588-1.3716-1.016-2.159-0.4064-0.7874-0.8128-1.3716-1.1938-1.7526-0.3302-0.3302-0.8128-0.6858-1.4478-1.0414-0.381-0.2032-0.7112-0.3302-1.016-0.4064-0.254-0.0762-0.635-0.1016-1.0922-0.1016-0.508 0-0.8128-0.0254-0.9398-0.0762-0.127-0.0254-0.1524-0.127-0.127-0.254 0.025-0.1524 0.025-0.254-0.025-0.2794-0.076-0.0254-0.2286-0.0254-0.508 0.0254-0.8636 0.1524-1.5494 0.3048-2.032 0.508-0.4826 0.1524-1.0668 0.4826-1.7272 0.9144-1.3462 0.8636-2.286 1.7272-2.8702 2.5908-0.5842 0.889-0.9144 1.9304-0.9906 3.1496-0.076 0.7874-0.025 1.5494 0.127 2.2352 0.1524 0.7112 0.4318 1.524 0.8636 2.4384 0.4826 1.0414 1.0668 1.9304 1.8034 2.6416 0.7366 0.6858 1.5494 1.1938 2.4638 1.4732z" stroke-width=".26458"/>
  </g>
 </g>
</svg>
